<?xml version="1.0" encoding="utf-8"?>
<!-- Generator: Adobe Illustrator 23.0.5, SVG Export Plug-In . SVG Version: 6.00 Build 0)  -->
<svg version="1.1" id="Layer_1" xmlns="http://www.w3.org/2000/svg"
    xmlns:xlink="http://www.w3.org/1999/xlink" x="0px" y="0px"
    viewBox="0 0 986 986" style="enable-background:new 0 0 986 986;" xml:space="preserve">
<style type="text/css">
	.st0{opacity: 0;}
	.st1{fill:#343434;}
	.st2{fill:#D8BB37;}
	.st3{fill:#D8BA37;}
	.st4{fill:#D7BA37;}
	.st5{fill:#CCB136;}
	.st6{fill:#D1B536;}
	.st7{fill:#CEB236;}
	.st8{fill:#D0B336;}
	.st9{fill:#D6B837;}
	.st10{fill:#D5B837;}
	.st11{fill:#C4AA36;}
	.st12{fill:#D3B637;}
	.st13{fill:#D7B937;}
	.st14{fill:#D4B737;}
	.st15{fill:#D1B436;}
	.st16{fill:#CDB136;}
	.st17{fill:#C9AE36;}
	.st18{fill:#BAA135;}
	.st19{fill:#B29B35;}
	.st20{fill:#AE9835;}
	.st21{fill:#434034;}
</style>
<g>
	<g>
		<path class="st0" d="M1,987C1,658.33,1,329.67,1,1c328.67,0,657.33,0,986,0c0,328.67,0,657.33,0,986C658.33,987,329.67,987,1,987z
			 M493.99,6C223.3,6.59,11.42,222.93,6.17,482.34C0.45,764.68,225.2,976.86,483.07,981.99c278.98,5.55,503.35-220.4,498.93-496.28
			C977.8,223.77,764.73,6.44,493.99,6z"/>
		<path class="st1" d="M493.99,6C764.73,6.44,977.8,223.77,982,485.71c4.42,275.87-219.94,501.83-498.93,496.28
			C225.2,976.86,0.45,764.68,6.17,482.34C11.42,222.93,223.3,6.59,493.99,6z M571.01,484.97c0.13,0.06,0.26,0.11,0.39,0.17
			c-0.15-0.03-0.31-0.06-0.46-0.09c-0.39-0.34-0.79-0.68-0.13-0.12C569.95,484.76,570.48,484.86,571.01,484.97z M519.95,495.94
			c-0.29,0.75-0.58,1.5-0.87,2.25c0.27,0.07,0.55,0.15,0.82,0.22c0.1-0.74,0.2-1.48,0.29-2.23c0.12-0.31,0.25-0.61,0.37-0.92
			C520.36,495.49,520.15,495.72,519.95,495.94z M512.88,500.87c-2.97,2.14-5.95,4.28-8.92,6.42c0.54,0.61,1.08,1.21,1.62,1.82
			c2.57-2.6,5.15-5.21,7.71-7.82c0.09-0.34,0.17-0.69,0.26-1.03C513.34,500.47,513.11,500.67,512.88,500.87z M780.41,459.66
			c0.43,0.33,0.87,0.66,1.3,0.99c-0.19-0.59-0.38-1.18-0.57-1.77c-1.98-2.65-3.96-5.29-5.94-7.94c-0.37,0.28-0.75,0.57-1.12,0.85
			C775.53,454.9,775.26,459.28,780.41,459.66z M553.06,555.05c-3.82,1.15-7.35,2.57-8.12,6.7c0.46,0.44,0.91,0.89,1.37,1.33
			c2.23-2.39,4.47-4.79,6.7-7.18c-0.7,2.29-1.39,4.58-2.01,6.63c2.64,0.44,5.35,0.75,7.99,1.39c1.4,0.34,2.82,2.01,3.97,1.78
			c13.72-2.72,27.38-5.7,41.07-8.58c5.11-1.07,10.23-2.04,15.35-3.06c0.08,0.39,0.16,0.78,0.25,1.17c-6.29,1.4-12.58,2.8-18.92,4.21
			c2.2,3.22,4.32,6.32,6.45,9.43c-0.26,0.25-0.51,0.5-0.77,0.75c-1.89-2.08-3.97-4.03-5.63-6.27c-1.95-2.63-4.13-3.16-7.23-2.32
			c-5.56,1.51-11.29,2.39-16.81,3.99c-8.96,2.59-18.86,2.01-26.87,7.88c-2.02,1.48-4.22,2.73-6.34,4.1
			c0.79,0.95,1.65,1.99,2.52,3.03c-2.01-0.34-4.01-0.67-6.02-1.01c-0.07-0.13-0.12-0.27-0.21-0.38c-0.04-0.04-0.18,0-0.27,0
			c0.18,0.1,0.37,0.19,0.55,0.29c0.11,0.61,0.06,1.3,0.34,1.8c2.87,5.17,7.18,8.03,13.01,9.55c8.07,2.11,15.89,5.15,23.82,7.79
			c-1.54-1.94-3.42-2.93-5.29-3.94c-8.67-4.72-17.34-9.44-26.01-14.17c1.54,0.38,3.19,0.52,4.6,1.18
			c20.72,9.62,41.59,18.94,62,29.16c8.49,4.25,16.83,6.34,26.21,5.83c3.42-0.19,4.99-1.22,6.14-4.28
			c6.65-17.78,13.44-35.51,20.21-53.25c0.47-1.24,1.1-2.42,1.65-3.63c0.26,0.12,0.53,0.23,0.79,0.35
			c-2.23,7.15-4.46,14.3-6.69,21.47c-0.16,0.29-0.33,0.58-0.49,0.86c0.23-0.22,0.45-0.44,0.68-0.65
			c5.53-8.63,10.49-17.7,16.75-25.76c7.2-9.27,9.04-19.76,10.33-30.83c1.49-12.79,3.74-25.49,5.57-38.24
			c0.85-5.92,1.49-11.87,2.29-18.41c-1.31,0.67-1.91,0.92-2.45,1.26c-25.24,15.97-50.48,31.94-75.7,47.96
			c-0.74,0.47-1.21,1.37-1.81,2.07c0,0,0.08-0.06,0.08-0.06c-0.93,0.25-1.96,0.33-2.78,0.78c-10.99,6.06-22.08,11.96-32.89,18.34
			c-9.63,5.68-19.34,11.41-25.52,21.32c-0.27,0.43-1.29,0.38-1.95,0.56c0.01-0.34,0.02-0.67,0.03-1.01c0.08-0.2,0.16-0.41,0.24-0.61
			C553.16,554.59,553.11,554.82,553.06,555.05z M485.04,573.96c0.12,0.16,0.23,0.32,0.35,0.48c-0.01-0.1,0.01-0.24-0.05-0.28
			c-0.1-0.08-0.25-0.09-0.38-0.14c-0.67-6.3-6.59-5.53-10.25-7.8C477.47,569.75,479.68,574,485.04,573.96z M455,496
			c-0.24-0.06-0.48-0.12-0.72-0.18C454.52,495.88,454.76,495.94,455,496c1.4,7.23,9.25,12.28,7.05,20.74
			c-0.02,0.06,0.39,0.23,0.73,0.41c0.6-1.33,1.16-2.6,1.78-3.97c1.35,1.25,2.54,2.35,3.73,3.45c0.17-0.16,0.35-0.33,0.52-0.49
			c-1.61-3.39-3.22-6.77-4.82-10.16c0.98,0.59,2.22,0.96,2.89,1.8c2.66,3.33,5.13,6.81,8.03,10.71c0.74-1.48,1.22-2.42,1.72-3.42
			c1.02,0.82,2.02,1.62,3.02,2.43c-3.59-9.97,2.38-17.62,5.63-25.72c3.14-7.81,6.94-15.36,10.29-23.08
			c0.58-1.34,0.79-3.08,0.52-4.51c-2.28-12.14-4.96-24.2-7.05-36.37c-2.23-13.01-4.04-26.1-5.88-39.17
			c-0.89-6.3-1.42-12.65-2.11-18.97c0.4-0.05,0.79-0.11,1.19-0.16c0.42,3.11,0.85,6.22,1.27,9.32c3.56-4.16,7.29-8.46,8.15-13.27
			c0.87-4.87-1.1-10.24-1.83-15.39c0.18-0.06,0.36-0.13,0.54-0.19c1.13,3.48,2.26,6.95,3.67,11.32c1.65-2.98,2.79-5.11,3.98-7.19
			c2.32-4.05,4.67-8.09,7.01-12.14c-0.07,0.65,0.05,1.39-0.23,1.93c-6.44,12.66-12.94,25.29-19.35,37.97
			c-0.62,1.22-1.27,2.76-1.07,4.02c3.2,20.36,6.47,40.71,9.88,61.03c0.85,5.05,2.21,10,3.34,14.99c3.13-4.07,6.19-7.42,8.54-11.21
			c11.57-18.58,22.94-37.27,34.41-55.9c0.65-1.06,1.65-1.9,2.49-2.84c-0.6,1.46-1.02,3.03-1.82,4.37
			c-9.43,15.82-19.38,31.35-28.23,47.48c-6.03,10.98-15.13,20.58-16.55,33.86c-0.25,2.3-0.73,4.57-1.09,6.86
			c-1.48,9.58-2.95,19.16-4.54,29.49c4.06-3.09,7.67-5.43,10.77-8.32c2.01-1.87,3.28-4.54,4.82-6.76c-0.17-0.23,0.54,0.74,1.19,1.65
			c2.64-1.95,5.32-3.67,7.64-5.78c1.06-0.96,1.87-2.67,2-4.1c0.45-5.11,0.45-10.25,0.83-15.36c0.36-5,0.97-9.98,1.47-14.96
			c0.28,0.01,0.56,0.02,0.84,0.04c0,4.26,0,8.53,0,13.16c5.06-3.9,9.66-7.44,14.26-10.97c0.35,0.45,0.69,0.89,1.04,1.34
			c-2.98,2.52-5.63,5.69-9.02,7.42c-7.73,3.95-7.38,10.87-7.5,17.76c0,0.24,1.13,0.5,1.73,0.75c0.24,0.25,0.48,0.49,0.72,0.74
			c-0.2,0.74-0.77,1.97-0.54,2.14c2.24,1.66,4.61,3.14,6.98,4.7c-0.56-4.1,1.06-6.6,5.48-8.1c2.29-0.77,3.83-3.83,5.62-5.93
			c0.82-0.96,1.45-2.08,2.16-3.13c0.25,0.17,0.51,0.34,0.76,0.51c-0.51,1.27-1.02,2.55-1.65,4.11c1.5-0.38,2.55-0.64,3.61-0.91
			c-0.52,1.9-1.05,3.8-1.75,6.37c10.93,0.88,21.87,1.76,32.82,2.63c-3.65-2.66-7.46-4.51-11.37-6.14c-1.07-0.45-3.01,0.22-3.54-0.44
			c-3.79-4.74-8.06-5.84-13.11-3.13c-0.91,0.49-2.06,0.52-3.09,0.76c4.99-3.04,9.97-6.08,14.96-9.12c0.13,0.15,0.25,0.31,0.36,0.47
			c-1.27,1.04-2.53,2.09-5.07,4.19c2.94-0.34,4.49-0.52,6.17-0.72c2.02,4.48,4.54,5.2,8.15,2.12c1.22,0.8,2.37,1.55,3.7,2.42
			c0.53-1.15,0.89-1.95,1.25-2.74c0.36,0.02,0.71,0.04,1.07,0.05c0,1.87,0,3.74,0,4.99c3.28,2.56,6.83,5.31,10.37,8.07
			c0.01,0.52,0.01,1.03,0.02,1.55c-8.73-0.95-17.71-3.66-24.43,1.93c-1.93-1.59-3.29-3.6-4.93-3.88c-4.56-0.76-9.23-1.02-13.86-0.97
			c-1.55,0.01-3.21,1.37-4.6,2.41c-1.65,1.23-3.07,2.78-4.59,4.2c0.02,0.05,0.05,0.09,0.07,0.14c-2.06,1.76-4.12,3.51-6.51,5.55
			c1.71,0.15,2.84,0.25,3.97,0.35l-0.09-0.07c-0.88,1.47-1.75,2.94-2.62,4.41c-0.33,0.44-0.66,0.88-1,1.32
			c0.6-0.18,1.19-0.37,1.79-0.55c5.2-2.14,10.4-4.29,15.59-6.43c0.27,0.25,0.54,0.49,0.81,0.74c-4.45,4.66-8.9,9.32-13.35,13.99
			c5.78-1.74,11.02-4.41,16.4-6.81c4.85-2.16,9.7-4.17,11.54-9.8c0.58,0.33,1.16,0.67,1.74,1c0.25,0.25,0.5,0.5,0.76,0.74
			c-2.89,3.18-5.78,6.36-9.27,10.21c5.93,0,10.52,0,15.32,0c0.2-1.49,0.37-2.82,0.58-4.44c0.73,0.99,1.05,1.91,1.6,2.08
			c3.01,0.94,6.07,1.7,9.11,2.52c-1,0.35-2,0.7-3.01,1.05c0.57,0.55,1.13,1.1,1.7,1.65c0.57-0.8,1.15-1.6,1.72-2.4
			c4.87-1.67,10.56-1.16,14.44-5.46c0.26,0.23,0.51,0.45,0.77,0.68c-0.12,1.61-0.23,3.23-0.39,5.36c-2.1,0.81-5.41,2.1-8.92,3.46
			c0.8,0.45,1.46,0.81,2.11,1.18c-8.49,4.58-8.49,4.58-10.6,8.51c-5.28-1.65-10.74-0.39-10.81,2.49c1.2,0.47,2.41,0.94,3.69,1.44
			c-0.58,0.98-1.03,1.73-1.47,2.49c0.25,0.45,0.5,0.9,0.76,1.35c5.02-2.12,10.24-3.85,15.01-6.44c7.71-4.19,14.94-9.27,22.7-13.35
			c8.4-4.42,14.61-10.41,18.13-19.36c1.14-2.89,2.66-5.2-0.36-7.96c1.09,0.39,2.19,0.77,3.42,1.2c2.05-3.85,3.98-7.47,5.91-11.09
			c0.24,0.22,0.48,0.43,0.73,0.63c-3.79,8.36-7.58,16.73-11.89,26.26c2.46-1.36,3.87-2.06,5.21-2.88
			c24.61-15.09,49.13-30.31,73.88-45.16c4.2-2.52,5.93-5.57,6.37-10.08c0.36-3.61,1.13-7.17,1.72-10.76
			c1.23-7.46,1.76-14.57-1.66-22.01c-5.01-10.9-8.77-22.38-13.48-34.73c-11.12,13.49-28.28,19.64-34.99,36.31
			c-0.57,1.42-2.48,2.31-4.46,4.05c0.36-1.89,0.54-2.84,0.93-4.92c-5.11,2.82-9.36,5.16-14.29,7.88c3.22,2.43,5.32,4.01,7.42,5.59
			c-2.44,0.01-4.36-0.81-6.35-1.44c-1.48-0.47-3.58-1.51-4.48-0.92c-6.57,4.35-12.9,9.04-19.13,13.51c1.49,2.19,2.69,3.95,3.89,5.72
			c-0.25,0.27-0.51,0.55-0.76,0.82c-0.62-0.42-1.24-0.84-2.51-1.7c0.47,4.03,0.84,7.23,1.21,10.42c-1.26-1.86-1.45-3.96-2.19-5.85
			c-1.33-3.35-0.54-7.11-4.04-10.15c-10.63-9.23-20.72-19.08-30.87-28.84c-1.83-1.76-2.96-1.55-4.41,0.04
			c-0.26-0.26-0.53-0.51-0.79-0.77c1.49-2.09,0.97-3.6-0.77-5.52c-4.11-4.51-7.92-9.3-11.68-14.11c-3.9-4.99-7.59-10.14-11.33-15.17
			c-2.88,3.95-5.46,7.49-8.03,11.02c2.22-4.47,4.43-8.95,6.67-13.46c-5.69-8.55-11.4-17.12-17.94-26.95
			c-0.5,3.95-0.79,6.29-1.09,8.63c-0.23-0.01-0.46-0.01-0.69-0.02c0-2.86,0-5.72,0-8.83c-3.17,0.99-5.91,1.85-9.19,2.89
			c0.53-5,0.99-9.28,1.44-13.56c-0.51-0.26-1.02-0.52-1.53-0.78c-1.63,2.04-3.27,4.08-4.65,5.8c0-5.36,0.06-11.32-0.03-17.27
			c-0.03-2.5-0.28-5.09-4.01-3.44c-0.37-2.25-0.32-4.68-1.2-6.71c-1.32-3.02-3.28-5.77-4.98-8.62c-3.96-6.65-7.92-13.29-12.09-20.3
			c-3.12,2.76-5.68,5.02-8.36,7.39c-0.26-1.42-0.46-2.49-0.76-4.15c-1.73,1.4-3.04,2.46-3.83,3.1c-1.15-0.49-2.57-1.58-3.1-1.25
			c-2.85,1.81-6.32,3.42-8.03,6.09c-9.5,14.82-18.33,30.06-27.89,44.84c-3.17,4.9-2.67,8.75,0.26,13.08
			c2.16,3.19,4.2,6.47,6.29,9.71c-0.33,0.22-0.65,0.44-0.98,0.65c-1.91-2.53-3.81-5.07-6.69-8.88c-0.38,5.14-0.64,8.77-0.91,12.4
			c-0.4-0.01-0.8-0.02-1.2-0.02c0-6.52,0-13.03,0-19.55c-0.39-0.05-0.78-0.11-1.18-0.16c-7.01,10.71-14.03,21.42-21.45,32.75
			c2.55,0.45,3.85,0.68,5.11,0.9c-3.41,1.78-7.13,2.97-9.81,5.33c-3.06,2.7-5.19,6.45-7.76,9.72c-1.8,2.29-2.77,4.37-1.64,7.65
			c1.38,4.01,1.29,8.51,2.33,12.67c1.45,5.83,0.38,12.1,4.51,17.51c8.87,11.6,17.18,23.64,25.77,35.46c1.55,2.13,3.31,4.1,4.97,6.15
			c0.31-0.18,0.62-0.36,0.94-0.54c-1.2-7.46-2.4-14.92-3.6-22.39c0.32-0.06,0.65-0.12,0.97-0.18c0.87,3.86,1.75,7.72,2.64,11.66
			c4.27-5.05,5.57-9.81,1.16-15.53c-2.58-3.34-3.89-7.65-5.77-11.53c0.3-0.28,0.6-0.57,0.9-0.85c3.01,5.54,6.02,11.09,9.19,16.93
			c1.59-2.67,2.77-4.63,3.94-6.6c0.24,0.22,0.48,0.43,0.73,0.64c-2.59,5.69-5.2,11.37-7.77,17.07c-2.75,6.1-1.62,12.28,1.16,17.71
			c3.04,5.95,7.4,11.24,11.18,16.81C457.69,497.33,456.34,496.67,455,496z M501.55,601.53c0.37,0.06,0.73,0.13,1.1,0.19
			c-0.16-0.29-0.33-0.57-0.49-0.86c-3.98-5.52-7.96-11.03-11.66-16.16c-1.12,0.2-2.59,0.47-4.38,0.8c-0.37,4.03,0.24,8.11,3.82,10.5
			C493.47,598.34,497.65,599.73,501.55,601.53z M788.41,282.47c0.3,0.27,0.6,0.54,0.9,0.81c-1.46,5.15-4.56,10.12-1.83,15.57
			c0.97-2.94,1.98-6.02,2.99-9.11c0.23,0.06,0.47,0.12,0.7,0.18c-0.56,8.66-1.12,17.31-1.68,25.97c0.48,0.04,0.96,0.08,1.45,0.12
			c3.09-16.35,6.17-32.7,9.37-49.63c-8.01,7.56-15.31,14.45-22.64,21.37c1.9,2.18,3.25,3.73,4.67,5.36
			C784.61,289.12,786.51,285.79,788.41,282.47z M410.09,594.09c-0.17-0.19-0.35-0.37-0.54-0.54c7.3-8.69,14.6-17.37,21.9-26.06
			c-0.35-0.29-0.7-0.59-1.06-0.88c-7.56,3.35-13.68,10.14-23.48,10.35c2.62-4.95,4.83-9.13,7.15-13.51c-7.16,0-13.88,0-20.6,0
			c-0.03-0.52-0.07-1.04-0.1-1.57c4.1-3.04,8.2-6.09,12.58-9.35c-1.49-0.73-2.77-1.11-3.75-1.88c-4.39-3.44-8.11-2.41-12.43,0.67
			c-11.35,8.09-23.04,15.71-34.57,23.54c-3.13,2.13-6.22,4.32-9.33,6.48c0.14,0.24,0.27,0.48,0.41,0.71
			c7.76-1.91,15.53-3.82,24.32-5.99c-1.29,5.97-2.41,11.19-3.7,17.17c4.92-3.08,9.21-5.76,13.63-8.53
			c2.89,9.43,5.56,18.44,8.49,27.38c0.39,1.18,2.04,2.69,3.13,2.71c1.51,0.03,3.4-0.88,4.47-2c1.01-1.06,1.17-2.93,1.7-4.44
			c0.25,0.06,0.51,0.13,0.76,0.19c-0.24,1.72-0.47,3.45-0.74,5.35c3.78,0,7.51,0,11.77,0c-0.68-1.49-1.16-2.54-1.63-3.59
			c1.26-0.37,2.2-0.64,3.13-0.91c-0.22,0.38-0.44,0.76-0.66,1.14c1.64,1.15,3.2,3.1,4.95,3.3c3.87,0.46,7.84,0.09,11.76-0.03
			c18.96-0.58,37.91-1.3,56.87-1.76c9.84-0.24,19.7-0.04,29.55-0.04c0.16-0.46,0.32-0.92,0.47-1.39
			c-8.67-4.14-17.33-8.29-26.33-12.58c-0.15,3.05-0.28,5.69-0.49,9.83c-5.03-6-9.03-10.77-13.17-15.71
			c-0.78,0.89-1.5,1.72-2.22,2.54c-0.9-0.62-1.75-1.19-2.65-1.81c-0.58,1.5-1.02,2.62-1.85,4.75c-0.38-1.91-0.53-2.7-0.69-3.5
			c-1.41,6.04-6.4,6.9-10.66,8.31c-0.83-2.27-1.56-4.26-2.29-6.25c-0.26-0.26-0.52-0.52-0.78-0.78c0.71-2.86,1.41-5.72,2.34-9.49
			c-1.92,0.96-2.6,1.3-3.32,1.66c-0.23-0.76-0.46-1.5-0.65-2.12c-5.97,1.42-10.31,4.49-11.63,10.79c-0.16-0.95-0.32-1.9-0.56-3.35
			c-1.03,1.22-1.6,1.9-2.17,2.58c-0.43-0.3-0.87-0.61-1.3-0.91c2.94-3.32,5.89-6.64,8.83-9.97c-8.84,1.91-17,5.2-25.75,6.1
			C416.3,591.77,413.19,592.93,410.09,594.09z M709.98,451.98c1.68-0.67,3.37-1.34,5.05-2.01c-4.97,3.63-10.05,7.13-14.85,10.98
			c-1.44,1.16-2.78,3.17-3.04,4.96c-1.71,11.56-3.21,23.16-4.59,34.76c-1.28,10.79-2.33,21.6-3.49,32.41
			c-0.2,0.11-0.41,0.23-0.61,0.34c0.1,0,0.23,0.04,0.28-0.01c0.11-0.11,0.18-0.27,0.27-0.4c1.9-2.75,3.8-5.5,5.71-8.25
			c0.28,0.24,0.56,0.47,0.83,0.71c-11.1,17.69-21.9,35.58-33.48,52.96c-3.13,4.7-5.65,9.41-7.57,14.61
			c-2.77,7.53-5.74,14.98-9.08,23.65c9.01,0,16.98,0.11,24.95-0.12c1.19-0.03,3.01-1.49,3.36-2.65c0.86-2.81,0.93-5.84,1.5-8.75
			c0.38-1.94,1.09-3.81,1.65-5.71c1.96,4.87,2.93,9.56,4.36,14.11c0.43,1.35,2.14,3.24,3.3,3.27c10.95,0.25,21.9,0.15,32.86,0.15
			c0.4-0.7,0.81-1.4,1.21-2.09c-2.04-3.11-4.08-6.23-6.12-9.34c0.26-0.28,0.52-0.56,0.79-0.85c0.43-1.17,1.37-2.43,1.2-3.51
			c-0.65-4.16-1.65-8.26-2.52-12.39c0.33-0.07,0.66-0.14,0.99-0.21c1.48,5.2,2.96,10.39,4.44,15.59c0.31-0.02,0.62-0.04,0.92-0.06
			c0.68-8.56,1.36-17.13,2.04-25.69c0.8,8.03,0.3,15.99,0.16,23.96c-0.08,4.5-3.23,9.19,0.52,13.62c3.89,0,7.79-0.47,11.53,0.12
			c4.45,0.71,5.82-1.1,6.5-5.07c3.19-18.58,6.56-37.13,9.89-55.69c0.55-3.1-0.18-5.2-3.3-6.81c-3.65-1.89-6.89-4.56-10.3-6.9
			c0.26-0.28,0.51-0.55,0.77-0.83c4.45,2.41,8.9,4.83,13.81,7.49c3.11-20.05,6.16-39.64,9.2-59.23c-0.27-0.08-0.54-0.16-0.81-0.24
			c-1.53,3.56-3.06,7.12-4.59,10.68c-0.24-4.36,0.6-8.44,1.38-12.54c0.78-4.14-0.4-5.54-3.96-4.81c-0.21-0.23-0.45-0.45-0.7-0.64
			c3.32-6,6.58-12.03,9.98-17.98c0.94-1.64,3.05-2.93,3.31-4.59c2.89-18.12,5.56-36.27,8.11-54.44c0.15-1.06-1.24-2.33-1.91-3.5
			c1-1.44,2.63-2.77,2.9-4.33c1.86-10.94,3.44-21.92,5.02-32.9c0.02-0.11-1.04-0.37-1.6-0.56c-0.29-0.24-0.58-0.48-0.87-0.72
			c5.71-8.18,6.02-17.89,6.45-27.13c0.31-6.56-2.31-13.26-3.66-19.88c-0.35-1.72-0.3-4.01-1.38-5c-2.34-2.15-5.3-3.63-8.32-5.59
			c-16.71,17.46-33.58,34.91-50.14,52.65c-1.58,1.7-1.28,5.15-1.86,7.79c-1.87,2.29-5.08,5.26-8.33,5.3
			c-4.85,0.06-6.23,3.85-9.21,5.85c-5.25,3.53-0.82,6.86,0.27,10.16c1.04,3.13,2.53,6.12,3.78,9.18c3.16,7.72,6.3,15.45,9.5,23.32
			c0.8-5.1,1.55-9.91,2.31-14.73c0.4,0.06,0.79,0.12,1.19,0.18c-0.84,6.48-1.7,12.97-2.52,19.45c-1.17,9.33-2.31,18.66-3.47,27.98
			c-0.24,0.03-0.48,0.06-0.73,0.09c0.03,0.15,0.07,0.3,0.1,0.44C709.61,452.39,709.8,452.19,709.98,451.98z M243.62,341.33
			c-0.42-0.35-0.84-0.7-1.27-1.05c0.14,0.64,0.28,1.28,0.42,1.92c0.47,1.54,0.94,3.08,1.41,4.62c-0.16,0.16-0.32,0.32-0.48,0.47
			c-1.22-2.13-3.29-4.19-3.5-6.42c-0.81-8.41-8.36-10.99-12.84-17.14c-0.37,3.75-0.63,6.38-0.89,9.02
			c-0.48-0.06-0.97-0.13-1.45-0.19c0.25-1.87,0.65-3.74,0.7-5.61c0.05-1.76,0.41-4.14-0.54-5.18c-7.22-7.93-14.72-15.59-22.08-23.29
			c-1.38,3.17-2.55,5.84-3.71,8.51c-1.63-4.11-2.06-7.73-2.75-11.3c-0.34-1.74-0.7-3.81-1.83-5c-2.69-2.85-5.84-5.27-9.16-8.17
			c0.94,5.4,1.84,10.7,2.78,15.99c3.54,19.86,6.99,39.74,10.68,59.57c1.68,9.04,3.11,18.25,6.04,26.91
			c2.46,7.26,7.05,13.22,14.35,17.54c21.13,12.51,41.75,25.9,62.54,38.99c6.5,4.09,12.93,8.32,19.61,12.64
			c0.16-0.97,0.34-1.32,0.24-1.57c-10.72-26.02-21.45-52.04-32.23-78.03c-1.7-4.11-2.87-8.78-5.64-12.03
			C257.65,355.1,250.47,348.35,243.62,341.33z M273.26,371.77c-0.28-0.19-0.55-0.38-0.83-0.57c0.17,0.28,0.35,0.56,0.52,0.84
			c4.58,10.97,9.17,21.94,13.74,32.92c2.58,6.19,4.16,12.97,10.34,16.99c0.55,0.36,0.73,1.29,1.49,2.71
			c-1.94-0.63-3.07-0.99-4.96-1.6c4.72,11.68,9.03,22.58,13.6,33.39c0.71,1.67,2.39,3.13,3.95,4.21
			c17.6,12.17,35.32,24.15,52.88,36.38c7.83,5.45,15.37,11.32,23.04,17.01c-1.18-0.42-2.49-0.62-3.52-1.28
			c-29.19-18.73-58.35-37.5-87.51-56.29c-10.14-6.53-20.24-13.11-30.51-19.77c-5.25,8.29-10.22,16.16-15.2,24.02
			c-0.45-0.27-0.91-0.55-1.36-0.82c4.62-8.24,9.24-16.47,13.96-24.89c-19.25-12.46-38.21-24.73-58.24-37.69
			c4.45,27.62,8.68,53.91,12.92,80.22c1.75,0.47,3.65,0.99,5.55,1.51c-0.06,0.26-0.12,0.51-0.18,0.77c-1.6,0.14-3.2,0.28-5.39,0.48
			c1.1,7.11,2.13,13.86,3.28,21.28c1.27-1.67,2.01-2.64,2.74-3.61c-4.79,14.31,2.16,27.38,2.64,41.67
			c7.1-3.03,13.08-5.82,19.23-8.16c8.2-3.11,16.56-5.83,20.47-14.8c0.06-0.14,0.25-0.21,0.38-0.32c0.28,0.26,0.56,0.53,0.84,0.79
			c-0.99,2.11-1.99,4.21-3.23,6.86c8.34-3.09,15.97-5.91,23.6-8.73c0.15,0.35,0.29,0.71,0.44,1.06c-4.87,2.15-9.74,4.3-15.35,6.78
			c3.38,3.03,6.22,5.57,9.06,8.12c-0.32,0.37-0.63,0.75-0.95,1.12c-2.88-2.27-5.7-4.63-8.69-6.76c-0.87-0.62-2.45-1.16-3.3-0.79
			c-7.74,3.32-15.38,6.86-24.51,10.99c6.27,6.69,11.84,12.62,17.4,18.56c-0.26,0.26-0.51,0.52-0.77,0.78
			c-7.15-3.76-14.68-6.95-21.32-11.46c-4.79-3.26-8.24-2.7-12.29,0.49c0.92,5.75,1.7,11.49,2.76,17.17
			c2.18,11.69,1.75,24.39,12.71,32.75c1.8,1.37,2.95,3.57,4.43,5.37c0.63,0.76,1.27,2.03,2,2.11c6.97,0.71,7.2,6.89,9.68,11.35
			c0.77,1.38,2.49,3.07,3.85,3.14c9.31,0.52,18.64,0.68,27.97,0.85c1.24,0.02,2.75-0.22,3.71-0.91c11.81-8.6,23.53-17.3,35.34-26.02
			c-4.71-8.45-9.28-16.65-13.85-24.84c0.28-0.24,0.55-0.49,0.83-0.73c0.88-1.69,1.76-3.39,2.64-5.08
			c-2.33,12.6,9.13,18.92,12.12,29.38c13.18-9.37,25.68-18.26,38.63-27.47c-8.43-2.96-16.26-5.7-24.09-8.45
			c0.11-0.32,0.22-0.64,0.33-0.96c4.07,1.04,8.14,2.09,12.65,3.24c0-2.42,0-4.36,0-6.31c0.91,0.98,1.38,2.01,1.46,3.08
			c0.25,3.29,2.1,4.77,5.22,5.18c2.87,0.38,6.28,2.18,8.46,1.18c4.96-2.26,9.31-5.86,13.06-8.35
			c-17.37-12.5-34.56-24.88-51.75-37.26c0.25-0.26,0.51-0.52,0.76-0.79c3.58,0.96,7.18,1.84,10.74,2.88
			c19.92,5.8,39.82,11.68,59.76,17.41c2.08,0.6,4.4,0.39,7.3,0.61c-2.58-2.88-4.3-4.8-6.02-6.73c2.21,0,4.42,0,6.63,0
			c0.14-0.4,0.28-0.8,0.42-1.2c-6.95-6.39-13.9-12.78-20.43-18.79c3.81,1.41,8.44,3.12,13.87,5.12
			c-7.33-12.08-14.17-23.35-21.01-34.62c0.29-0.24,0.58-0.49,0.87-0.73c1.18,1.43,2.36,2.87,3.54,4.3c0.55-0.3,1.09-0.6,1.64-0.89
			c-1.24-2.64-2.49-5.27-3.73-7.91c0.27-0.25,0.54-0.5,0.81-0.74c0.68,0.56,1.37,1.11,2.24,1.82c0.18-2.14,0.33-3.87,0.47-5.59
			c0.73,2.27,0.94,4.52,0.69,6.72c-0.83,7.31,1.37,13.54,5.84,19.32c3.33,4.31,6.66,8.82,8.89,13.73c2.88,6.32,7.76,8.8,15.65,10.1
			c-1.94-3.96-3.45-7.03-4.95-10.1c0.28-0.25,0.57-0.49,0.85-0.74c0.71,0.61,1.42,1.22,2.85,2.44c0-3.34,0-5.94,0-8.54
			c1.01,5.12,1.32,10.22,1.98,15.27c0.18,1.34,1.12,3.06,2.23,3.71c2.22,1.29,4.8,1.97,7.58,3.03c-0.51-4.69-0.97-8.99-1.44-13.29
			c1.79,2.98,2.98,6.14,3.49,9.4c0.71,4.66,3,7.2,8.14,7.48c-1.05-4.04-2.05-7.85-3.05-11.66c1.62,1.5,2.16,3.37,3.08,5.04
			c0.21,0.39,1.7,0.07,2.6,0.08c0.25,0.24,0.49,0.48,0.74,0.72c-3.89,5.88-1.19,8.57,9.8,11.33c-1.12-3.51-2.11-6.73-3.18-9.92
			c-0.64-1.91-0.23-2.99,1.98-2.89c0.09,0.18,0.18,0.36,0.26,0.54c0-0.08,0.03-0.19-0.01-0.24c-0.09-0.1-0.22-0.17-0.33-0.25
			c-1.34-1.48-2.67-2.96-4.01-4.44c0.08-0.29,0.1-0.59,0.05-0.9c-0.33-1.06-0.66-2.11-1.17-3.75c2.18,0.86,3.43,1.36,4.68,1.85
			c-5.02-4.79-8.42-10.14-9.75-16.92c-1.01-5.16-2.65-10.19-4.07-15.27c-0.22-0.77-0.68-1.51-1.16-2.16
			c-15.94-21.65-31.9-43.29-47.74-64.76c-12.42,11.26-24.8,22.48-37.18,33.7c-0.36-0.37-0.72-0.73-1.08-1.1
			c0.82-1.52,1.65-3.05,2.24-4.15c-14.92-11.16-29.61-22.16-45.32-33.91c-0.24,4.05-0.43,7.16-0.62,10.26
			c-0.67-0.94-0.65-1.93-0.94-2.82c-1.72-5.09-1.07-10.96-6.43-14.78c-5.53-3.95-10.42-8.79-15.55-13.28
			C283.68,381,278.49,376.37,273.26,371.77z M291.42,623c5.45,0,9.9-0.39,14.25,0.08c10.88,1.18,20.27-1.7,29.44-7.79
			c11.5-7.64,11.83-7.08,20.27,3.88c0.91,1.19,2.4,2.69,3.65,2.73c8.07,0.25,16.16,0.13,24.5,0.13
			c-2.96-10.25-5.66-19.58-8.14-28.17c-4.89,2.82-9.38,5.42-14.18,8.2c1.04-6.46,1.95-12.08,2.99-18.57
			c-4.4,1.36-7.78,2.8-11.3,3.42c-8.09,1.43-15.96,2.37-22.97,7.88c-10.62,8.35-22.14,15.54-33.22,23.31
			C295.02,619.29,293.64,620.92,291.42,623z M453.42,676.8c0.5-0.1,1-0.21,1.49-0.31c2.56,3.64,5.15,7.26,7.68,10.91
			c22.02,31.84,44.01,63.7,66.07,95.51c0.96,1.38,2.51,2.35,3.78,3.51c0.45-0.27,0.89-0.54,1.34-0.81c0-1.77,0-3.55,0-5.32
			c0-17.5,0-35,0-52.5c0-18,0.02-36-0.04-53.99c-0.01-1.63-0.55-3.26-0.84-4.89c-0.63,0.09-1.26,0.18-1.88,0.27
			c0,36.72,0,73.44,0,110.17c-12.01-15.66-22.98-31.47-33.94-47.29c-13.63-19.68-27.23-39.37-40.89-59.02
			c-1.13-1.63-2.64-2.99-4.69-5.27c0,40.49,0,79.3,0,118.33c1.01-0.27,1.87-0.39,1.87-0.51
			C453.42,749.32,453.42,713.06,453.42,676.8z M651.9,740.84c0,1.72,0.15,2.57-0.02,3.35c-5.7,25.75-36.89,45.34-62.7,39.41
			c-33.36-7.67-52.51-43.22-40.71-75.6c9.7-26.64,35.23-41.5,62.32-36.05c17.26,3.47,29.72,13.27,37.32,29.23
			c0.57,1.2,1.9,2.03,2.88,3.03c-7.93-26.42-37.58-41.28-64.52-34.73c-25.44,6.18-46.79,33.18-43.69,64.71
			c3.88,39.54,47.97,69.34,87.03,43.71c14.03-9.2,23.52-21.51,25.85-38.39c-18.39,0-36.4,0-54.4,0c0,0.45,0,0.89,0,1.34
			C617.93,740.84,634.61,740.84,651.9,740.84z M387.09,669.37c0.12,0.89,0.14,1.49,0.2,1.49c8.01,0.48,16.03,0.92,24.26,1.37
			c0,36.89,0,73.74,0,110.89c-4.53,0-8.69,0-12.84,0c-10,0-10,0-11.66,2.21c17.4,0,34.67,0,51.93,0c0.03-0.61,0.06-1.22,0.08-1.83
			c-8.18,0-16.36,0-24.57,0c0-37.86,0-74.59,0-111.75c3.15,0,5.96,0,8.77,0c2.83,0,5.69,0.22,8.49-0.07
			c2.42-0.25,5.5,1.48,7.71-2.32C421.66,669.37,404.48,669.37,387.09,669.37z M376.83,669.1c-0.46,0.25-2.03,0.71-3.07,1.73
			c-18.25,17.79-36.4,35.68-54.66,53.46c-2.56,2.49-2.39,4.21,0.21,6.49c20.16,17.66,40.22,35.41,60.39,53.05
			c1.39,1.22,3.38,1.74,5.1,2.59c0.2-0.37,0.41-0.74,0.61-1.11c-21.76-19.25-43.52-38.5-64.35-56.92
			C339.89,708.36,358.59,688.49,376.83,669.1z M351.76,521.14c-0.19,0.25-0.37,0.5-0.56,0.76c12.74,8.35,25.44,16.76,38.28,24.95
			c0.88,0.56,3.29-0.01,4.03-0.87c0.67-0.78,0.49-2.99-0.17-4.02c-1.03-1.61-2.79-2.77-4.24-4.11c0.21-0.25,0.41-0.5,0.62-0.76
			c2.93,1.42,5.85,2.84,9.11,4.42c2.7-1.87,5.56-3.85,8.56-5.92C388.48,530.67,370.12,525.9,351.76,521.14z M631.27,628.74
			c0.16-0.53,0.33-1.05,0.49-1.58c-21.47-5.74-41.27-16.29-63.49-20.44c3.61,3.75,7.54,6.95,11.94,9.22
			c9.6,4.93,21.5,4.32,29.92,12.25c0.43,0.4,1.25,0.53,1.89,0.53C618.44,628.76,624.86,628.74,631.27,628.74z M511.06,595.19
			c3.25,4.96,6.12,9.62,9.29,14.06c1.07,1.49,2.89,3.43,4.41,3.47c13.12,0.27,26.25,0.16,37.5,0.16
			C546.63,607.47,529.12,601.42,511.06,595.19z M311.3,785.79c0.59,0.09,1.18,0.18,1.76,0.28c0.26-1.71,0.75-3.42,0.75-5.13
			c0.05-19.5,0.03-38.99,0.03-58.49c0-16.33,0.03-32.66-0.04-48.99c-0.01-1.53-0.63-3.06-0.97-4.59c-0.51,0.12-1.03,0.23-1.54,0.35
			C311.3,708.08,311.3,746.94,311.3,785.79z M322.5,625.68c9.92,0,19.29,0,29.91,0c-3.59-4.24-6.34-7.89-9.57-11.02
			c-0.73-0.71-3.47-0.13-4.78,0.68C332.91,618.51,327.96,622.01,322.5,625.68z M469.78,285.17c0.33,0.56,0.66,1.13,0.99,1.69
			c5.87-2.56,11.74-5.13,18.1-7.9c-2.78-4.63-5.08-8.46-7.86-13.09C476.86,272.99,473.32,279.08,469.78,285.17z M531.95,589.18
			c-14.61-0.76-14.61-0.76-18.45,2.69c9.03,3.6,17.45,6.96,27.26,10.88C537.31,597.45,534.75,593.5,531.95,589.18z M568.25,625.6
			c6.75,10.81,16.53,11.43,28.44,9.83C587.49,629.25,577.91,628.06,568.25,625.6z M260.13,629.68c-5-2.41-9.19-4.7-13.6-6.43
			c-1.93-0.76-4.35-0.06-3.22,2.93C245.66,632.43,253.09,634.45,260.13,629.68z M789.83,459.32c-7.16,0.82-9.52,13.73-3.92,23.08
			C787.26,474.41,788.51,467.07,789.83,459.32z M560.38,609.33c0.19-0.35,0.38-0.71,0.57-1.06c-5.09-4.37-10.18-8.73-15.28-13.1
			c-0.42,0.14-0.85,0.28-1.27,0.42c0.29,2.81-0.38,7.29,1.05,8.11C550.01,606.32,555.34,607.56,560.38,609.33z M194.93,411.43
			c0.66,0.23,1.32,0.45,1.98,0.68c2.22-2.75,4.44-5.51,6.66-8.27c-0.78-1.02-1.15-1.87-1.8-2.3c-1.41-0.93-2.96-1.64-4.45-2.44
			c-0.8,1.69-2,3.31-2.3,5.09C194.63,406.53,194.93,409.01,194.93,411.43z M238.55,615.04c-4.52-1.57-8.67-3.02-12.83-4.47
			C232.42,621.71,232.42,621.71,238.55,615.04z M541.2,585.29c0.22-0.25,0.43-0.51,0.65-0.76c-4.39-1.52-8.78-3.05-14.26-4.95
			c2.86,4.9-1.03,4.05-2.92,5.71C530.17,585.29,535.68,585.29,541.2,585.29z M195.14,379.89c-0.5,5.79,1.94,8.97,6.96,11.08
			C201.89,385.8,201.05,381.59,195.14,379.89z M492.14,561.19c-4.22-2.4-8.45-4.79-12.83-7.28
			C480.08,563.2,487.09,560.7,492.14,561.19z M225.99,588.81c1.08,9.77,1.68,10.79,8,13.14
			C230.91,596.89,228.45,592.85,225.99,588.81z M470.02,572.88c0.55-0.15,1.09-0.3,1.64-0.44c-0.88-3.95-1.75-7.91-2.84-12.81
			C464.41,565.62,468.81,568.95,470.02,572.88z M440.03,573.63c3.32-2.62,5.77-4.56,8.63-6.82
			C442.98,564.34,440.77,566.04,440.03,573.63z M522.17,314.99c0.23,4.16,0.41,7.42,0.59,10.73
			C527.99,323.7,529.17,322.54,522.17,314.99z M519.43,557.76c0.56,0.08,1.11,0.16,1.67,0.24c0.78-2.43,1.56-4.86,2.58-8.05
			c-2.6,0.15-4.09,0.23-6.17,0.35C518.26,553.23,518.84,555.5,519.43,557.76z M490.32,504.18c0.57-2.98,1.2-6.32,1.83-9.66
			c-0.29-0.05-0.59-0.11-0.88-0.16c-1.78,3.02-3.55,6.04-5.42,9.21C487.45,503.78,488.59,503.94,490.32,504.18z M486.24,564.57
			c0.1,0.88,0.2,1.76,0.3,2.64c3.78-0.52,7.56-1.05,11.34-1.57c-0.07-0.59-0.14-1.18-0.21-1.78
			C493.85,564.1,490.05,564.33,486.24,564.57z M428.35,563.29c-0.42-0.5-0.85-1-1.27-1.5c-3.32,2.72-6.65,5.45-9.97,8.17
			c0.42,0.51,0.84,1.01,1.26,1.52C421.69,568.75,425.02,566.02,428.35,563.29z M560.66,538.26c-4.29,0.39-8.38,0.75-13.09,1.18
			C551.35,542.15,557.97,541.35,560.66,538.26z M426.72,545.39c2.27-0.9,3.82-1.52,6.25-2.49c-3.03-1.71-5.12-2.89-8.46-4.77
			C425.46,541.24,426,543.02,426.72,545.39z M532.9,568.37c-0.25,0.66-0.51,1.32-0.76,1.97c2.23,1.59,3.85,4.96,8.73,1.28
			C537.75,570.35,535.32,569.36,532.9,568.37z M779.04,473.95c-0.66-0.36-1.32-0.71-1.97-1.07c-1.58,3.09-3.17,6.18-4.75,9.26
			c0.53,0.28,1.05,0.56,1.58,0.84C775.61,479.98,777.33,476.97,779.04,473.95z M431.64,566.27c0.3-0.17,0.58-0.33,0.85-0.49
			c-0.13-0.22-0.29-0.64-0.38-0.62c-0.28,0.05-0.6,0.21-0.77,0.42C431.27,565.67,431.53,566.02,431.64,566.27z M519.61,493.22
			c-0.11,0.09-0.22,0.18-0.33,0.27c0.1,0.1,0.2,0.27,0.3,0.27c0.1,0,0.22-0.16,0.32-0.25C519.82,493.41,519.71,493.32,519.61,493.22
			z"/>
		<path class="st2" d="M266.33,516.36c-0.13,0.11-0.32,0.18-0.38,0.32c-3.91,8.98-12.27,11.69-20.47,14.8
			c-6.16,2.34-12.14,5.13-19.23,8.16c-0.49-14.29-7.43-27.36-2.64-41.67c-0.74,0.97-1.47,1.94-2.74,3.61
			c-1.14-7.42-2.18-14.17-3.28-21.28c2.19-0.19,3.79-0.34,5.39-0.48c0.06-0.26,0.12-0.51,0.18-0.77c-1.9-0.52-3.81-1.03-5.55-1.51
			c-4.24-26.31-8.47-52.6-12.92-80.22c20.02,12.96,38.99,25.23,58.24,37.69c-4.72,8.41-9.34,16.65-13.96,24.89
			c0.45,0.27,0.91,0.55,1.36,0.82c4.98-7.86,9.95-15.73,15.2-24.02c10.27,6.66,20.37,13.24,30.51,19.77
			c29.16,18.78,58.32,37.55,87.51,56.29c1.02,0.66,2.34,0.86,3.52,1.28c0,0-0.07-0.06-0.07-0.06c1.02,0.68,2.05,1.37,3.07,2.05
			l-0.07-0.05c4.42,6.22,11.89,6.97,18.06,10.05l-0.07-0.06c1.72,1.93,3.45,3.85,6.02,6.73c-2.9-0.22-5.22-0.01-7.3-0.61
			c-19.94-5.73-39.84-11.61-59.76-17.41c-3.56-1.04-7.16-1.92-10.74-2.88c-2.36-1.64-4.72-3.28-7.08-4.91
			c-0.2-0.22-0.39-0.45-0.59-0.67c0.07,0.36,0.14,0.71,0.21,1.07c2.23,1.77,4.46,3.54,6.69,5.31
			c17.19,12.38,34.39,24.75,51.76,37.25c-3.75,2.49-8.1,6.09-13.06,8.35c-2.18,1-5.59-0.8-8.46-1.18c-3.12-0.41-4.97-1.89-5.22-5.18
			c-0.08-1.07-0.55-2.1-1.46-3.08c0,1.95,0,3.89,0,6.31c-4.5-1.15-8.57-2.2-12.65-3.24c-0.11,0.32-0.22,0.64-0.33,0.96
			c7.83,2.75,15.66,5.49,24.09,8.45c-12.95,9.21-25.45,18.1-38.63,27.47c-3-10.46-14.46-16.78-12.12-29.38
			c-0.88,1.69-1.76,3.39-2.64,5.08c-2.7-4.31-5.4-8.62-8.11-12.93c-0.43-0.37-0.87-0.74-1.3-1.1c0.18,0.6,0.37,1.2,0.55,1.79
			c2.68,4.32,5.35,8.65,8.03,12.97c4.57,8.2,9.14,16.39,13.85,24.84c-11.8,8.72-23.53,17.42-35.34,26.02
			c-0.96,0.7-2.47,0.94-3.71,0.91c-9.33-0.17-18.66-0.33-27.97-0.85c-1.37-0.08-3.09-1.76-3.85-3.14
			c-2.47-4.45-2.71-10.64-9.68-11.35c-0.73-0.07-1.37-1.35-2-2.11c-1.48-1.79-2.64-4-4.43-5.37c-10.96-8.36-10.53-21.06-12.71-32.75
			c-1.06-5.68-1.84-11.42-2.76-17.17c4.05-3.19,7.5-3.75,12.29-0.49c6.63,4.51,14.17,7.7,21.32,11.46c1.56,1.14,3.11,2.27,4.67,3.4
			c0.41,0.05,0.82,0.09,1.23,0.14c-0.16-0.33-0.32-0.66-0.48-0.99c-1.55-1.11-3.11-2.23-4.66-3.34
			c-5.57-5.94-11.14-11.88-17.4-18.56c9.13-4.13,16.78-7.66,24.51-10.99c0.85-0.37,2.42,0.17,3.3,0.79c2.98,2.13,5.8,4.49,8.69,6.76
			c0.32-0.37,0.63-0.75,0.95-1.12c-2.84-2.55-5.68-5.1-9.06-8.12c5.61-2.48,10.48-4.63,15.35-6.78c-0.15-0.35-0.29-0.71-0.44-1.06
			c-7.63,2.82-15.26,5.65-23.6,8.73c1.25-2.64,2.24-4.75,3.23-6.86c1.46-2.22,2.93-4.44,4.39-6.66c0.22-0.43,0.44-0.85,0.65-1.28
			c0.68-0.99,1.36-1.99,2.04-2.98c1-1.65,2-3.31,2.99-4.96c0.18-0.24,0.39-0.46,0.54-0.72c0.03-0.04-0.2-0.23-0.31-0.35
			c-0.18,0.25-0.36,0.49-0.54,0.74c-1.18,1.53-2.37,3.06-3.55,4.59c-0.66,0.99-1.32,1.98-1.98,2.97c-0.22,0.42-0.44,0.83-0.67,1.25
			C269.27,511.95,267.8,514.15,266.33,516.36z M283.47,534.61c0.32,0.3,0.64,0.61,0.95,0.91c0.66,0.48,1.33,0.96,1.99,1.44
			c0.34-0.38,0.68-0.75,1.01-1.13c-0.72-0.36-1.45-0.72-2.18-1.08c-0.36-0.3-0.72-0.61-1.08-0.91c-0.52-0.43-1.04-0.87-1.56-1.3
			c-0.18,0.2-0.37,0.39-0.55,0.59C282.53,533.61,283,534.12,283.47,534.61z M249.53,461.8c-0.38-0.29-0.76-0.59-1.15-0.88
			c-1.86,3.08-3.72,6.17-5.58,9.25c0.4,0.25,0.8,0.5,1.2,0.74C245.85,467.87,247.69,464.84,249.53,461.8z"/>
		<path class="st3" d="M546.98,386.04c2.58-3.53,5.15-7.07,8.03-11.02c3.74,5.03,7.43,10.18,11.33,15.17
			c3.76,4.81,7.58,9.6,11.68,14.11c1.75,1.92,2.26,3.42,0.77,5.52c-0.77,0.91-1.54,1.81-2.3,2.72c-0.08,0.36-0.16,0.72-0.25,1.08
			c0.28-0.17,0.57-0.34,0.85-0.5c0.83-0.84,1.66-1.68,2.49-2.52c1.46-1.59,2.58-1.81,4.41-0.05c10.15,9.76,20.25,19.61,30.87,28.84
			c3.5,3.04,2.71,6.79,4.04,10.15c0.75,1.88,0.93,3.99,2.19,5.85c-0.37-3.2-0.74-6.39-1.21-10.42c1.27,0.86,1.89,1.28,2.51,1.69
			c0.65,0.64,1.3,1.28,1.95,1.92c0.49,0.53,0.97,1.07,1.45,1.61c0.77,0.98,1.54,1.95,2.31,2.93c0.35-0.28,0.69-0.56,1.04-0.83
			c-0.85-0.96-1.7-1.91-2.55-2.87c-0.51-0.49-1.01-0.98-1.52-1.47c0.18-0.44,0.36-0.87,0.54-1.31c2.8-1.54,5.6-3.07,8.4-4.61
			c0.22-0.18,0.44-0.37,0.66-0.55c-0.34,0.09-0.68,0.18-1.01,0.28c-2.93,1.38-5.85,2.77-8.78,4.15c-0.58-0.02-1.15-0.04-1.73-0.07
			c-1.2-1.76-2.4-3.52-3.89-5.72c6.23-4.46,12.57-9.16,19.13-13.51c0.9-0.6,3,0.44,4.48,0.92c1.98,0.63,3.91,1.45,6.35,1.44
			c-2.1-1.58-4.2-3.17-7.42-5.59c4.92-2.72,9.17-5.06,14.29-7.88c-0.39,2.07-0.57,3.03-0.93,4.92c1.98-1.74,3.89-2.63,4.46-4.05
			c6.71-16.66,23.87-22.82,34.99-36.31c4.72,12.35,8.47,23.83,13.48,34.73c3.42,7.44,2.89,14.55,1.66,22.01
			c-0.59,3.58-1.36,7.15-1.72,10.76c-0.45,4.51-2.17,7.56-6.37,10.08c-24.75,14.85-49.27,30.07-73.88,45.16
			c-1.34,0.82-2.75,1.53-5.21,2.88c4.32-9.53,8.1-17.89,11.89-26.26c0.15-0.65,0.31-1.3,0.46-1.96c-0.19-0.06-0.38-0.11-0.57-0.17
			c-0.21,0.5-0.41,1-0.62,1.5c-1.93,3.62-3.86,7.24-5.91,11.09c-1.23-0.43-2.32-0.82-3.42-1.2c3.02,2.77,1.49,5.07,0.36,7.96
			c-3.52,8.95-9.73,14.94-18.13,19.36c-7.76,4.08-14.99,9.16-22.7,13.35c-4.76,2.59-9.99,4.32-15.01,6.44
			c-0.25-0.45-0.5-0.9-0.76-1.35c0.45-0.76,0.9-1.52,1.47-2.49c-1.29-0.5-2.49-0.97-3.69-1.44c0.07-2.89,5.53-4.14,10.81-2.49
			c2.11-3.93,2.11-3.93,10.61-8.52c-0.65-0.37-1.31-0.73-2.11-1.18c3.51-1.36,6.82-2.65,8.92-3.46c0.15-2.14,0.27-3.75,0.38-5.36
			c0.09-0.37,0.19-0.74,0.29-1.1c-0.35,0.14-0.7,0.28-1.05,0.43c-3.88,4.3-9.57,3.79-14.44,5.46c-0.14-0.09-0.28-0.19-0.41-0.29
			c-3.04-0.82-6.11-1.58-9.11-2.52c-0.55-0.17-0.86-1.09-1.6-2.08c-0.21,1.62-0.39,2.95-0.58,4.44c-4.79,0-9.39,0-15.32,0
			c3.49-3.85,6.38-7.03,9.27-10.21c0.6-0.7,1.21-1.41,1.81-2.11c-0.45-0.4-0.91-0.8-1.36-1.21c-0.4,0.86-0.8,1.72-1.2,2.57
			c-0.58-0.33-1.16-0.67-1.74-1c-1.84,5.63-6.69,7.64-11.54,9.8c-5.37,2.39-10.62,5.07-16.4,6.81c4.45-4.66,8.9-9.32,13.35-13.99
			c0.09-0.38,0.18-0.77,0.27-1.15c-0.36,0.14-0.72,0.27-1.08,0.41c-5.2,2.14-10.4,4.29-15.59,6.43c-0.27-0.25-0.53-0.51-0.8-0.76
			c0.88-1.47,1.75-2.94,2.62-4.41c0.12-0.08,0.26-0.14,0.36-0.24c0.04-0.04,0-0.17-0.01-0.26c-0.09,0.19-0.17,0.38-0.26,0.57
			c-1.13-0.1-2.26-0.2-3.97-0.35c2.39-2.04,4.45-3.8,6.51-5.55c-0.02-0.05-0.05-0.09-0.07-0.14c1.52-1.41,2.94-2.96,4.59-4.2
			c1.39-1.04,3.05-2.39,4.6-2.41c4.62-0.04,9.3,0.22,13.86,0.97c1.64,0.27,3,2.29,4.93,3.88c6.72-5.6,15.7-2.89,24.43-1.93
			c-0.01-0.52-0.01-1.03-0.02-1.55c-3.54-2.76-7.08-5.52-10.37-8.07c0-1.25,0-3.12,0-4.99c-0.36-0.02-0.71-0.04-1.07-0.05
			c-0.36,0.79-0.72,1.59-1.25,2.74c-1.33-0.87-2.48-1.62-3.7-2.42c-3.61,3.08-6.13,2.35-8.15-2.12c-1.68,0.2-3.23,0.38-6.17,0.72
			c2.54-2.1,3.81-3.14,5.07-4.19c0.49-0.27,0.99-0.53,1.48-0.79c-0.11-0.2-0.22-0.4-0.34-0.6c-0.5,0.31-1,0.62-1.51,0.93
			c-4.99,3.04-9.97,6.08-14.96,9.12l0.05-0.05c-1.06,0.27-2.11,0.53-3.61,0.91c0.63-1.57,1.14-2.84,1.65-4.11
			c-0.25-0.17-0.51-0.34-0.76-0.51c-0.71,1.05-1.34,2.17-2.16,3.13c-1.8,2.1-3.34,5.16-5.62,5.93c-4.43,1.5-6.04,4-5.48,8.1
			c-2.38-1.56-4.74-3.04-6.98-4.7c-0.22-0.17,0.34-1.4,0.54-2.14c0.65-0.68,1.31-1.37,1.96-2.05c0.29-0.36,0.6-0.73,0.89-1.09
			c0.03-0.41,0.06-0.81,0.1-1.21c-0.21,0.23-0.41,0.46-0.62,0.68c-0.34,0.33-0.68,0.66-1.02,0.98c-0.68,0.65-1.36,1.3-2.04,1.95
			c-0.6-0.25-1.73-0.51-1.73-0.75c0.12-6.89-0.23-13.8,7.5-17.76c3.39-1.73,6.04-4.9,9.02-7.42c-0.35-0.45-0.69-0.89-1.04-1.34
			c-4.6,3.54-9.19,7.08-14.26,10.97c0-4.63,0-8.9,0-13.16c-0.28-0.01-0.56-0.02-0.84-0.04c-0.5,4.99-1.11,9.97-1.47,14.96
			c-0.37,5.11-0.38,10.26-0.83,15.36c-0.13,1.44-0.94,3.14-2,4.1c-2.32,2.11-5,3.82-7.64,5.78c-0.66-0.91-1.36-1.88-1.19-1.65
			c-1.54,2.22-2.81,4.89-4.82,6.76c-3.1,2.89-6.71,5.24-10.77,8.32c1.59-10.33,3.06-19.91,4.54-29.49c0.35-2.29,0.84-4.56,1.09-6.86
			c1.42-13.28,10.52-22.87,16.55-33.86c8.85-16.13,18.8-31.67,28.23-47.48c0.8-1.34,1.22-2.91,1.82-4.37l-0.06,0.07
			c1.35-2.02,2.71-4.04,4.06-6.06L546.98,386.04z M553.6,447.62c-0.5,0.41-1,0.81-1.49,1.22c0.18,0.2,0.36,0.41,0.54,0.61
			c0.48-0.46,0.96-0.91,1.44-1.37c0.18-0.28,0.36-0.57,0.54-0.85C554.29,447.35,553.94,447.49,553.6,447.62z M544.49,456.53
			c0.74-0.21,1.49-0.42,2.23-0.62c-0.43-0.48-0.86-0.96-1.29-1.44c-0.58,0.41-1.15,0.82-1.72,1.23c-0.4,0.26-0.79,0.52-1.19,0.78
			c-0.72,0.23-1.45,0.46-2.17,0.69c0.4,0.45,0.8,0.9,1.2,1.35c0.58-0.41,1.16-0.81,1.74-1.22
			C543.69,457.04,544.09,456.79,544.49,456.53z M549.73,450.71c-0.9,0.65-1.79,1.31-2.69,1.96c0.2,0.3,0.41,0.59,0.61,0.89
			c0.97-0.66,1.93-1.32,2.89-1.99c0.46-0.49,0.92-0.97,1.39-1.46c-0.17-0.2-0.34-0.39-0.52-0.59
			C550.86,449.92,550.29,450.31,549.73,450.71z M621.74,487.28c0.55,0.39,1.11,0.78,1.66,1.17c0.44-0.47,0.89-0.95,1.33-1.42
			c-0.74-0.2-1.49-0.39-2.23-0.59c-0.96-0.68-1.92-1.36-2.88-2.03c-0.49-0.9-0.97-1.81-1.46-2.71c-0.41,0.41-0.82,0.81-1.23,1.22
			c0.66,0.71,1.33,1.43,1.99,2.14C619.86,485.81,620.8,486.55,621.74,487.28z M535.97,461.45c0.31,0.41,0.62,0.82,0.92,1.23
			c1.35-1.06,2.7-2.11,4.05-3.17c-0.23-0.32-0.47-0.64-0.7-0.96C538.82,459.52,537.4,460.48,535.97,461.45z"/>
		<path class="st3" d="M712.5,605.55c2.04,3.11,4.08,6.23,6.12,9.34c-0.4,0.7-0.81,1.4-1.21,2.09c-10.95,0-21.91,0.1-32.86-0.15
			c-1.16-0.03-2.87-1.92-3.3-3.27c-1.43-4.55-2.4-9.25-4.36-14.11c-0.56,1.9-1.26,3.77-1.65,5.71c-0.57,2.91-0.65,5.94-1.5,8.75
			c-0.35,1.16-2.17,2.61-3.36,2.65c-7.97,0.23-15.94,0.12-24.95,0.12c3.34-8.67,6.3-16.12,9.08-23.65
			c1.92-5.21,4.44-9.91,7.57-14.61c11.58-17.37,22.38-35.26,33.47-52.96c1.24-2.07,2.49-4.13,3.74-6.2
			c0.38-0.59,0.76-1.19,1.15-1.78c-0.42-0.38-0.83-0.76-1.25-1.15c-0.25,0.71-0.5,1.42-0.75,2.12c-1.24,2.1-2.48,4.2-3.72,6.29
			c-1.9,2.75-3.8,5.5-5.71,8.25l0.06,0.07c1.15-10.8,2.2-21.62,3.49-32.41c1.38-11.61,2.88-23.2,4.59-34.76
			c0.26-1.79,1.6-3.8,3.04-4.96c4.8-3.84,9.88-7.35,14.85-10.98c0,0-0.07,0.05-0.07,0.05c3.36-2.01,6.72-4.03,10.08-6.04l-0.07,0.05
			c2.1-1.24,4.2-2.48,6.29-3.73c0.86-0.58,1.73-1.16,2.59-1.74c-0.18-0.24-0.37-0.49-0.55-0.73c-0.91,0.56-1.82,1.12-2.73,1.69
			c-0.75,0.31-1.5,0.62-3.24,1.35c2.81-6.15,5.23-11.49,7.69-16.8c0.18-0.4,0.59-0.76,0.97-1c8.13-4.91,16.31-9.72,24.37-14.74
			c2.4-1.5,4.46-3.56,6.67-5.36l-0.07,0.05c1.02-0.68,2.04-1.37,3.07-2.05l-0.07,0.06c0.67,1.17,2.06,2.44,1.91,3.5
			c-2.55,18.17-5.22,36.32-8.11,54.44c-0.26,1.66-2.37,2.95-3.31,4.59c-3.4,5.95-6.66,11.98-9.98,17.98
			c0.01,0.41,0.01,0.82,0.01,1.23c0.23-0.2,0.45-0.39,0.68-0.59c3.56-0.73,4.74,0.67,3.96,4.81c-0.78,4.09-1.62,8.18-1.38,12.54
			c1.53-3.56,3.06-7.12,4.59-10.68c0.27,0.08,0.54,0.16,0.81,0.24c-3.04,19.59-6.09,39.18-9.2,59.23
			c-4.91-2.66-9.36-5.07-13.81-7.49c-3.51-6.8-7.03-13.6-10.54-20.4c-0.34-0.62-0.69-1.25-1.03-1.88c-1.02-1.99-2.04-3.98-3.07-5.97
			c-0.39-0.3-0.78-0.61-1.16-0.91c0.17,0.48,0.34,0.97,0.52,1.45c0.95,2.05,1.89,4.09,2.84,6.14c0.35,0.65,0.71,1.3,1.06,1.96
			c2.41,5.26,4.81,10.53,7.22,15.79l0.1-0.07c-1.94-0.74-3.88-1.48-5.82-2.22c-0.56-0.43-1.13-0.87-1.69-1.3
			c-1.7-0.99-3.4-1.99-5.1-2.98c-0.71-0.37-1.42-0.74-2.13-1.1c-0.13,0.27-0.26,0.53-0.39,0.8c0.63,0.35,1.25,0.7,1.88,1.05
			c1.63,1.04,3.26,2.09,4.89,3.13c0.58,0.42,1.16,0.84,1.73,1.26c3.31,2.03,6.61,4.06,9.92,6.09c3.42,2.33,6.66,5,10.3,6.89
			c3.11,1.61,3.85,3.72,3.3,6.81c-3.32,18.56-6.7,37.11-9.89,55.69c-0.68,3.96-2.05,5.78-6.5,5.07c-3.73-0.6-7.63-0.12-11.53-0.12
			c-3.75-4.43-0.6-9.12-0.52-13.62c0.14-7.97,0.64-15.93-0.16-23.96c-0.68,8.56-1.36,17.13-2.04,25.69
			c-0.31,0.02-0.62,0.04-0.92,0.06c-1.48-5.2-2.96-10.39-4.44-15.59c-0.33,0.07-0.66,0.14-0.99,0.21c0.87,4.12,1.87,8.23,2.52,12.39
			c0.17,1.08-0.77,2.33-1.2,3.51c-0.79-0.57-1.59-1.14-2.38-1.71c-0.16,0.26-0.33,0.51-0.49,0.77
			C711.11,604.36,711.8,604.95,712.5,605.55z M713.07,496.08c0.21-0.57,0.41-1.15,0.62-1.72c-0.36,0.41-0.72,0.81-1.08,1.23
			c-0.24,0.44-0.49,0.87-0.73,1.31c-4.01,6.28-8.02,12.57-12.04,18.85c0.49,0.3,0.98,0.6,1.48,0.9c3.72-6.39,7.44-12.78,11.15-19.17
			C712.67,497,712.87,496.54,713.07,496.08z M726.33,505.27c-0.47,0.17-0.95,0.33-1.42,0.5c1.16,5.72,2.31,11.43,3.47,17.15
			c0.45-0.1,0.91-0.21,1.36-0.31C728.6,516.83,727.47,511.05,726.33,505.27z"/>
		<path class="st2" d="M505.03,341.97c-2.34,4.04-4.69,8.08-7.01,12.14c-1.2,2.09-2.33,4.21-3.98,7.19
			c-1.42-4.37-2.55-7.85-3.67-11.32c-0.18,0.06-0.36,0.13-0.54,0.19c0.73,5.15,2.7,10.53,1.83,15.39
			c-0.86,4.81-4.59,9.11-8.15,13.27c-0.42-3.11-0.85-6.22-1.27-9.32c-0.4,0.05-0.79,0.11-1.19,0.16c0.69,6.33,1.22,12.67,2.11,18.97
			c1.84,13.08,3.65,26.16,5.88,39.17c2.09,12.17,4.76,24.23,7.05,36.37c0.27,1.43,0.06,3.17-0.52,4.51
			c-3.36,7.73-7.15,15.27-10.29,23.08c-3.25,8.1-9.22,15.74-5.63,25.72c-1-0.81-2-1.61-3.02-2.43c-0.51,1-0.98,1.94-1.72,3.42
			c-2.9-3.9-5.37-7.38-8.03-10.71c-0.67-0.84-1.91-1.21-2.89-1.8c0,0,0.06,0.05,0.06,0.05c-0.68-1.36-1.35-2.71-2.03-4.07l0.04,0.05
			c-1.02-1.35-2.03-2.7-3.05-4.05l0.03,0.04c-3.78-5.58-8.14-10.86-11.18-16.81c-2.78-5.44-3.91-11.62-1.16-17.71
			c2.57-5.7,5.18-11.38,7.77-17.07c0.2-0.66,0.4-1.32,0.6-1.98c-0.21-0.07-0.43-0.15-0.64-0.22c-0.23,0.52-0.46,1.05-0.68,1.57
			c-1.18,1.97-2.35,3.94-3.94,6.6c-3.17-5.85-6.18-11.39-9.2-16.93c-0.67-1.32-1.33-2.65-2-3.97c-0.34-0.63-0.68-1.27-1.03-1.91
			c-0.34-0.45-0.68-0.91-1.02-1.36c-0.19,0.08-0.38,0.16-0.56,0.24c0.26,0.59,0.52,1.19,0.77,1.78c0.33,0.68,0.65,1.35,0.98,2.03
			c0.65,1.35,1.31,2.69,1.96,4.04c1.88,3.87,3.2,8.19,5.77,11.53c4.41,5.72,3.1,10.48-1.16,15.53c-0.89-3.94-1.77-7.8-2.64-11.66
			c-0.32,0.06-0.65,0.12-0.97,0.18c1.2,7.46,2.4,14.92,3.6,22.39c-0.31,0.18-0.62,0.36-0.94,0.54c-1.66-2.05-3.42-4.02-4.97-6.15
			c-8.59-11.83-16.9-23.86-25.77-35.46c-4.13-5.4-3.07-11.68-4.51-17.51c-1.03-4.17-0.94-8.66-2.33-12.67
			c-1.13-3.28-0.16-5.36,1.64-7.65c2.57-3.27,4.7-7.02,7.76-9.72c2.68-2.36,6.4-3.55,9.81-5.33c-1.26-0.22-2.57-0.45-5.11-0.9
			c7.42-11.33,14.43-22.04,21.45-32.75c0.39,0.05,0.78,0.11,1.18,0.16c0,6.52,0,13.03,0,19.55c0.4,0.01,0.8,0.02,1.2,0.02
			c0.27-3.63,0.53-7.26,0.91-12.4c2.87,3.81,4.78,6.35,6.69,8.88c0.33-0.22,0.65-0.44,0.98-0.65c-2.09-3.24-4.13-6.52-6.29-9.71
			c-2.93-4.33-3.43-8.18-0.26-13.08c9.56-14.78,18.39-30.02,27.89-44.84c1.71-2.67,5.18-4.28,8.03-6.09
			c0.52-0.33,1.95,0.76,3.1,1.25c0.79-0.64,2.1-1.7,3.83-3.1c0.31,1.66,0.5,2.73,0.76,4.15c2.68-2.37,5.23-4.62,8.36-7.39
			c4.17,7,8.14,13.65,12.09,20.3c1.7,2.86,3.66,5.6,4.98,8.62c0.88,2.03,0.83,4.46,1.2,6.71l0.06-0.07
			c-0.68,1.36-1.36,2.72-2.04,4.08l0.05-0.07c-1.35,2.69-2.7,5.38-4.05,8.07c0,0,0.05-0.08,0.05-0.08c-0.35,0.69-0.7,1.38-1.06,2.07
			c0,0,0.04-0.07,0.04-0.07c-0.35,0.69-0.7,1.38-1.04,2.07c0,0,0.04-0.07,0.04-0.07c-1.01,2.36-2.02,4.72-3.04,7.08
			C504.98,342.04,505.03,341.97,505.03,341.97z"/>
		<path class="st2" d="M546,580.04c-0.86-1.04-1.73-2.08-2.52-3.03c2.13-1.36,4.32-2.61,6.34-4.1c8.01-5.88,17.91-5.29,26.87-7.88
			c5.53-1.6,11.26-2.48,16.81-3.99c3.1-0.84,5.29-0.31,7.23,2.32c1.66,2.25,3.74,4.19,5.63,6.27c1.74,2.49,3.48,4.98,5.43,7.78
			c1.74-5.21-2.83-6.02-4.66-8.53c-2.12-3.1-4.24-6.21-6.45-9.43c6.34-1.41,12.63-2.81,18.92-4.21c-0.08-0.39-0.16-0.78-0.25-1.17
			c-5.12,1.02-10.24,1.98-15.35,3.06c-13.69,2.87-27.35,5.86-41.07,8.58c-1.15,0.23-2.57-1.44-3.97-1.78
			c-2.64-0.64-5.35-0.95-7.99-1.39c0.62-2.04,1.32-4.33,2.01-6.62c0,0-0.07,0.08-0.07,0.08c0.67-0.18,1.69-0.13,1.95-0.56
			c6.18-9.91,15.89-15.63,25.52-21.32c10.81-6.38,21.89-12.28,32.89-18.34c0.82-0.45,1.85-0.53,2.78-0.78
			c-0.01,0.48-0.16,1.33-0.01,1.38c5.85,2.1,11.73,4.14,17.61,6.18c0.18-0.58,0.37-1.15,0.55-1.73c-6.07-1.92-12.15-3.85-18.22-5.77
			c0.6-0.7,1.07-1.6,1.81-2.07c25.22-16.01,50.46-31.98,75.7-47.96c0.54-0.34,1.13-0.59,2.45-1.26c-0.81,6.54-1.45,12.49-2.29,18.41
			c-1.83,12.75-4.08,25.45-5.57,38.24c-1.29,11.08-3.14,21.57-10.33,30.83c-6.26,8.06-11.22,17.13-16.75,25.76
			c0,0-0.2-0.22-0.2-0.22c2.23-7.15,4.46-14.3,6.7-21.46c-0.26-0.12-0.53-0.23-0.79-0.35c-0.55,1.21-1.18,2.39-1.65,3.63
			c-6.76,17.74-13.56,35.47-20.21,53.25c-1.14,3.05-2.72,4.09-6.14,4.28c-9.37,0.51-17.72-1.58-26.21-5.83
			c-20.41-10.23-41.29-19.54-62-29.16c-1.41-0.65-3.06-0.8-4.59-1.18C545.92,579.98,546,580.04,546,580.04z M616.81,567.79
			c-0.8,0.54-1.61,1.09-2.41,1.63c-0.6,0.62-1.19,1.25-1.79,1.87c0.18,0.19,0.36,0.39,0.54,0.58c0.68-0.55,1.36-1.1,2.04-1.66
			c0.77-0.55,1.54-1.1,2.31-1.66c0.3-0.47,0.59-0.94,0.89-1.41C617.87,567.36,617.34,567.57,616.81,567.79z M548.44,578.61
			c0.18-0.29,0.36-0.59,0.54-0.88c-0.52-0.29-1.04-0.59-1.56-0.88c-0.11,0.18-0.23,0.36-0.34,0.54
			C547.54,577.79,547.99,578.2,548.44,578.61z"/>
		<path class="st3" d="M387.43,476.47c6.84,11.27,13.68,22.54,21.01,34.62c-5.42-2-10.06-3.71-13.87-5.12
			c6.53,6.01,13.48,12.4,20.43,18.79c-0.14,0.4-0.28,0.8-0.42,1.2c-2.21,0-4.42,0-6.63,0c0,0,0.07,0.06,0.07,0.06
			c-0.56-1-0.89-2.51-1.73-2.91c-5.38-2.52-10.87-4.79-16.32-7.14c0,0,0.07,0.05,0.07,0.05c-1.02-0.68-2.05-1.37-3.07-2.05
			c0,0,0.07,0.06,0.07,0.06c-7.67-5.68-15.21-11.56-23.04-17.01c-17.56-12.22-35.28-24.21-52.88-36.38
			c-1.56-1.08-3.24-2.54-3.95-4.21c-4.57-10.8-8.88-21.71-13.6-33.39c1.89,0.61,3.02,0.98,4.96,1.6c-0.75-1.42-0.93-2.35-1.49-2.71
			c-6.18-4.03-7.76-10.8-10.34-16.99c-4.57-10.98-9.16-21.94-13.74-32.92l0.31-0.28c5.21,4.61,10.41,9.24,15.64,13.82
			c5.13,4.49,10.02,9.33,15.55,13.28c5.36,3.83,4.71,9.7,6.43,14.78c0.3,0.88,0.27,1.88,0.94,2.82c0.19-3.1,0.37-6.21,0.62-10.26
			c15.71,11.76,30.41,22.75,45.32,33.91c-0.59,1.1-1.42,2.62-2.24,4.15c0.36,0.37,0.72,0.73,1.08,1.1
			c12.38-11.22,24.76-22.44,37.18-33.7c15.84,21.48,31.8,43.11,47.74,64.76c0.48,0.65,0.94,1.39,1.16,2.16
			c1.42,5.07,3.06,10.11,4.07,15.27c1.33,6.78,4.73,12.13,9.75,16.92c-1.25-0.49-2.49-0.99-4.68-1.85c0.51,1.64,0.84,2.69,1.17,3.74
			c-1.98-1.23-3.96-2.46-6.53-4.05c2.45,5.61,3.57,6.37,6.48,4.95c1.34,1.48,2.67,2.96,4.01,4.44l0.07-0.06
			c-2.21-0.1-2.62,0.99-1.98,2.89c1.07,3.19,2.06,6.41,3.18,9.92c-10.99-2.77-13.69-5.45-9.8-11.34c0.01-0.41,0.03-0.83,0.05-1.24
			c-0.26,0.17-0.52,0.35-0.79,0.52c-0.9-0.01-2.39,0.31-2.6-0.08c-0.92-1.66-1.46-3.54-3.08-5.04c1,3.81,1.99,7.62,3.05,11.66
			c-5.15-0.28-7.43-2.83-8.14-7.48c-0.5-3.26-1.7-6.42-3.49-9.4c0.47,4.3,0.93,8.6,1.44,13.29c-2.78-1.06-5.36-1.74-7.58-3.03
			c-1.11-0.65-2.06-2.36-2.23-3.71c-0.66-5.05-0.97-10.15-1.98-15.27c0,2.6,0,5.2,0,8.54c-1.43-1.22-2.14-1.83-2.85-2.44
			c-0.24-0.41-0.47-0.83-0.71-1.24c-1.77-2.53-3.55-5.05-5.32-7.58c-0.39,0.29-0.79,0.57-1.18,0.86c1.89,2.5,3.78,5,5.67,7.5
			c0.23,0.4,0.46,0.81,0.68,1.21c1.51,3.07,3.01,6.14,4.96,10.09c-7.89-1.3-12.77-3.78-15.65-10.1c-2.24-4.92-5.56-9.42-8.89-13.73
			c-4.47-5.78-6.67-12.01-5.84-19.32c0.25-2.2,0.04-4.45-0.69-6.72c-0.15,1.72-0.29,3.45-0.47,5.59c-0.87-0.71-1.55-1.26-2.24-1.82
			c-0.7-0.75-1.39-1.51-2.09-2.27c-0.21,0.18-0.42,0.36-0.63,0.54c0.64,0.82,1.27,1.64,1.91,2.47c1.24,2.64,2.49,5.27,3.73,7.91
			c-0.55,0.3-1.09,0.6-1.64,0.89c-1.18-1.43-2.36-2.87-3.54-4.3c-0.68-0.99-1.36-1.98-2.03-2.97c-0.45-0.62-0.9-1.25-1.35-1.87
			c-0.22,0.14-0.44,0.29-0.67,0.43c0.41,0.71,0.82,1.42,1.22,2.14C386.12,474.46,386.77,475.46,387.43,476.47z M307.59,433.39
			c-0.49-0.44-0.99-0.88-1.48-1.31c-0.18,0.18-0.37,0.37-0.55,0.55c0.43,0.5,0.86,1.01,1.29,1.51c0.6,0.52,1.19,1.03,1.79,1.55
			c0.17-0.2,0.34-0.41,0.51-0.61C308.62,434.51,308.11,433.95,307.59,433.39z M351.6,450.58c1.3-1.63,2.6-3.26,3.9-4.89
			c-0.37-0.26-0.73-0.51-1.1-0.77c-1.18,1.66-2.35,3.31-3.53,4.97c-0.5,0.5-1,1-1.49,1.51c-2.18,2.43-4.36,4.86-7.09,7.92
			c5.83-0.34,2.8,3.08,2.81,5.28c5.1-3.09,5.16-7.76,5.01-12.51C350.6,451.58,351.1,451.08,351.6,450.58z M302.73,435.24
			c0.75,1.75,1.5,3.5,2.25,5.26c0.38-0.18,0.77-0.36,1.15-0.54c-0.85-1.8-1.71-3.59-2.56-5.39c0.78-4.6-0.63-8.04-6.38-10.33
			C299.32,428.47,301.02,431.85,302.73,435.24z M441.3,504.57c0.97,1.69,1.95,3.37,2.92,5.06c0.67-0.56,1.35-1.12,2.02-1.69
			c-1.71-5.2-3.42-10.4-5.14-15.59c-0.29,0.09-0.59,0.19-0.88,0.28c0.6,3.48,1.2,6.95,1.8,10.43c-0.86-0.54-1.73-1.09-2.59-1.63
			c-0.18,0.2-0.36,0.4-0.53,0.59C439.7,502.87,440.5,503.72,441.3,504.57z"/>
		<path class="st2" d="M244.18,346.83c-0.47-1.54-0.94-3.08-1.41-4.62c0.28-0.29,0.57-0.59,0.85-0.88
			c6.85,7.03,14.03,13.77,20.38,21.23c2.77,3.25,3.94,7.92,5.64,12.03c10.78,26,21.51,52.01,32.23,78.03
			c0.1,0.24-0.08,0.6-0.24,1.57c-6.69-4.31-13.11-8.54-19.61-12.64c-20.79-13.09-41.4-26.48-62.54-38.99
			c-7.3-4.32-11.89-10.28-14.35-17.54c-2.93-8.66-4.36-17.87-6.04-26.91c-3.69-19.83-7.14-39.71-10.68-59.57
			c-0.94-5.29-1.84-10.59-2.78-15.99c3.32,2.9,6.47,5.32,9.16,8.17c1.12,1.19,1.49,3.26,1.83,5c0.69,3.57,1.13,7.18,2.75,11.3
			c1.16-2.67,2.33-5.34,3.71-8.51c7.36,7.69,14.87,15.36,22.08,23.29c0.95,1.04,0.59,3.43,0.54,5.18c-0.05,1.88-0.45,3.74-0.7,5.61
			c0.48,0.06,0.97,0.13,1.45,0.19c0.26-2.63,0.52-5.27,0.89-9.02c4.48,6.15,12.03,8.72,12.84,17.14c0.21,2.23,2.28,4.28,3.5,6.41
			c0.36,0.05,0.71,0.11,1.06,0.16C244.57,347.25,244.38,347.04,244.18,346.83z"/>
		<path class="st2" d="M776.29,363.25c0.56,0.19,1.61,0.45,1.6,0.56c-1.59,10.98-3.17,21.96-5.02,32.9c-0.27,1.56-1.9,2.89-2.9,4.33
			c0,0,0.07-0.06,0.07-0.06c-1.02,0.68-2.05,1.37-3.07,2.05l0.07-0.05c-1.61,0.75-3.31,1.35-4.81,2.27
			c-8.25,5.08-16.44,10.25-25.79,16.09c2.08-4.41,3.6-7.65,5.12-10.88c1.36-2.31,2.73-4.62,4.1-6.93c-0.39-0.23-0.78-0.45-1.17-0.68
			c-1.26,2.3-2.52,4.6-3.79,6.9c-3.11,5.63-6.56,11.1-9.24,16.93c-2.58,5.6-4.36,11.56-6.49,17.37c0,0,0.07-0.05,0.07-0.05
			c-3.36,2.01-6.72,4.03-10.08,6.04c0,0,0.07-0.05,0.07-0.05c-1.68,0.67-3.37,1.34-5.05,2.01l0.06,0.09
			c1.15-9.33,2.29-18.66,3.46-27.99c0.82-6.49,1.68-12.97,2.52-19.45c-0.4-0.06-0.79-0.12-1.19-0.18
			c-0.75,4.81-1.51,9.63-2.31,14.73c-3.2-7.87-6.34-15.6-9.5-23.32c-1.25-3.06-2.75-6.05-3.78-9.18c-1.09-3.3-5.52-6.63-0.27-10.16
			c2.98-2,4.37-5.79,9.21-5.85c3.25-0.04,6.46-3.01,8.33-5.3c0.57-2.64,0.27-6.09,1.86-7.79c16.56-17.73,33.42-35.18,50.14-52.65
			c3.02,1.96,5.97,3.44,8.32,5.59c1.08,0.99,1.03,3.28,1.38,5c1.35,6.63,3.97,13.33,3.66,19.88c-0.43,9.24-0.74,18.95-6.45,27.13
			c-0.64,1.01-1.28,2.01-1.93,3.02c-0.37,0.69-0.74,1.38-1.12,2.07c0.25,0.13,0.51,0.27,0.76,0.4c0.38-0.59,0.77-1.18,1.15-1.77
			C774.96,365.26,775.62,364.26,776.29,363.25z"/>
		<path class="st2" d="M515.96,319.03c3.73-1.65,3.98,0.94,4.01,3.44c0.08,5.96,0.03,11.91,0.03,17.27c1.38-1.72,3.01-3.76,4.65-5.8
			c0.51,0.26,1.02,0.52,1.53,0.78c-0.45,4.28-0.91,8.56-1.44,13.56c3.29-1.03,6.03-1.89,9.19-2.89c0,3.11,0,5.97,0,8.83
			c0.23,0.01,0.46,0.01,0.69,0.02c0.3-2.34,0.59-4.68,1.09-8.63c6.54,9.83,12.25,18.4,17.94,26.95c-2.24,4.52-4.45,8.99-6.67,13.46
			c0,0,0.05-0.07,0.05-0.07c-1.35,2.02-2.71,4.04-4.06,6.06c0,0,0.06-0.07,0.06-0.07c-0.84,0.94-1.84,1.78-2.49,2.84
			c-11.48,18.63-22.85,37.33-34.41,55.9c-2.36,3.79-5.41,7.14-8.54,11.21c-1.13-4.99-2.49-9.95-3.34-14.99
			c-3.4-20.33-6.68-40.67-9.88-61.03c-0.2-1.26,0.45-2.8,1.07-4.02c6.42-12.67,12.92-25.3,19.35-37.97
			c0.28-0.54,0.16-1.28,0.23-1.93c0,0-0.05,0.07-0.05,0.07c1.01-2.36,2.02-4.72,3.04-7.08c0,0-0.04,0.07-0.04,0.07
			c0.35-0.69,0.7-1.38,1.04-2.07c0,0-0.04,0.07-0.04,0.07c0.35-0.69,0.7-1.38,1.06-2.07c0,0-0.05,0.08-0.05,0.08
			c1.35-2.69,2.7-5.38,4.05-8.07c0,0-0.05,0.07-0.05,0.07c0.68-1.36,1.36-2.72,2.04-4.08L515.96,319.03z"/>
		<path class="st4" d="M454.18,596.19c0.73,1.99,1.46,3.98,2.29,6.25c4.26-1.42,9.25-2.27,10.66-8.31c0.16,0.8,0.31,1.59,0.69,3.5
			c0.83-2.13,1.26-3.25,1.85-4.75c0.9,0.62,1.75,1.19,2.65,1.81c0.72-0.82,1.44-1.65,2.22-2.54c4.14,4.94,8.14,9.71,13.17,15.71
			c0.21-4.14,0.34-6.78,0.49-9.83c8.99,4.3,17.66,8.44,26.33,12.58c-0.16,0.46-0.32,0.92-0.47,1.39c-9.85,0-19.7-0.2-29.55,0.04
			c-18.96,0.46-37.91,1.17-56.87,1.76c-3.93,0.12-7.9,0.49-11.76,0.03c-1.76-0.21-3.31-2.15-4.95-3.3c0.22-0.38,0.44-0.76,0.66-1.14
			c-0.93,0.27-1.87,0.54-3.13,0.91c0.48,1.05,0.95,2.1,1.63,3.59c-4.26,0-7.98,0-11.77,0c0.26-1.9,0.5-3.62,0.74-5.35
			c-0.25-0.06-0.51-0.13-0.76-0.19c-0.53,1.51-0.69,3.38-1.7,4.44c-1.07,1.13-2.96,2.03-4.47,2c-1.09-0.02-2.74-1.53-3.13-2.71
			c-2.92-8.93-5.6-17.95-8.49-27.38c-4.41,2.76-8.7,5.44-13.63,8.53c1.29-5.98,2.41-11.19,3.7-17.17
			c-8.79,2.16-16.55,4.08-24.32,5.99c-0.14-0.24-0.27-0.48-0.41-0.71c3.11-2.16,6.2-4.35,9.33-6.48
			c11.54-7.83,23.22-15.45,34.57-23.54c4.32-3.08,8.04-4.11,12.43-0.67c0.98,0.77,2.26,1.15,3.75,1.88
			c-4.39,3.26-8.49,6.3-12.58,9.35c0.03,0.52,0.07,1.04,0.1,1.57c6.72,0,13.44,0,20.6,0c-2.32,4.38-4.53,8.56-7.15,13.51
			c9.8-0.21,15.91-7,23.48-10.35c0.35,0.29,0.7,0.59,1.06,0.88c-7.3,8.69-14.6,17.37-21.89,26.06c-0.03,0.41-0.05,0.81-0.08,1.21
			c0.21-0.22,0.41-0.45,0.62-0.67c3.11-1.16,6.22-2.32,9.1-3.39c8.75-0.9,16.91-4.19,25.75-6.1c-2.94,3.32-5.89,6.64-8.83,9.97
			c0.43,0.3,0.87,0.61,1.3,0.91c0.57-0.68,1.14-1.35,2.17-2.58c0.24,1.45,0.4,2.4,0.56,3.35c1.32-6.3,5.65-9.37,11.63-10.79
			c0.19,0.62,0.42,1.36,0.65,2.12c0.72-0.36,1.4-0.7,3.32-1.66c-0.93,3.76-1.63,6.63-2.34,9.49c-0.71,0.69-1.43,1.37-2.15,2.06
			c0.18,0.21,0.36,0.41,0.54,0.62C452.59,597.46,453.38,596.83,454.18,596.19z M396.07,569.08c2.22,0.16,5.22-3.26,6.47,1.73
			c1.28-1.96,2.4-3.66,4.37-6.69c-4.76,1.76-8.12,2.99-11.47,4.24c-1.55,1.17-3.11,2.34-4.66,3.51c0.45,0.45,0.9,0.91,1.35,1.36
			C393.44,571.84,394.75,570.46,396.07,569.08z"/>
		<path class="st3" d="M291.42,623c2.22-2.08,3.59-3.72,5.29-4.9c11.08-7.77,22.6-14.96,33.22-23.31
			c7.01-5.51,14.88-6.45,22.97-7.88c3.52-0.62,6.9-2.06,11.3-3.42c-1.05,6.48-1.95,12.1-2.99,18.57c4.81-2.78,9.3-5.37,14.18-8.2
			c2.48,8.6,5.18,17.93,8.14,28.17c-8.34,0-16.42,0.12-24.5-0.13c-1.26-0.04-2.74-1.55-3.65-2.73c-8.44-10.96-8.77-11.52-20.27-3.88
			c-9.17,6.09-18.55,8.97-29.44,7.79C301.32,622.61,296.87,623,291.42,623z"/>
		<path class="st5" d="M453.42,676.8c0,36.26,0,72.52-0.06,108.78c0,0.12-0.86,0.24-1.87,0.51c0-39.04,0-77.84,0-118.33
			c2.05,2.28,3.56,3.65,4.69,5.27c13.66,19.65,27.26,39.35,40.89,59.02c10.96,15.82,21.94,31.64,33.94,47.29
			c0-36.72,0-73.44,0-110.17c0.63-0.09,1.26-0.18,1.88-0.27c0.29,1.63,0.83,3.26,0.84,4.89c0.06,18,0.04,36,0.04,53.99
			c0,17.5,0,35,0,52.5c0,1.77,0,3.55,0,5.32c-0.45,0.27-0.89,0.54-1.34,0.81c-1.27-1.16-2.82-2.13-3.78-3.51
			c-22.06-31.81-44.06-63.67-66.07-95.51c-2.53-3.66-5.12-7.28-7.68-10.91C454.42,676.59,453.92,676.7,453.42,676.8z"/>
		<path class="st6" d="M651.9,740.84c-17.3,0-33.97,0-50.65,0c0-0.45,0-0.89,0-1.34c18.01,0,36.02,0,54.4,0
			c-2.33,16.89-11.82,29.19-25.85,38.39c-39.06,25.63-83.15-4.17-87.03-43.71c-3.1-31.53,18.26-58.53,43.69-64.71
			c26.94-6.55,56.58,8.32,64.52,34.73c-0.98-1-2.31-1.84-2.88-3.03c-7.6-15.96-20.06-25.76-37.32-29.23
			c-27.09-5.45-52.62,9.41-62.32,36.05c-11.79,32.38,7.36,67.93,40.71,75.6c25.81,5.93,57-13.66,62.7-39.41
			C652.05,743.41,651.9,742.57,651.9,740.84z"/>
		<path class="st7" d="M387.09,669.37c17.39,0,34.57,0,52.37,0c-2.21,3.8-5.29,2.07-7.71,2.32c-2.8,0.29-5.66,0.07-8.49,0.07
			c-2.81,0-5.61,0-8.77,0c0,37.16,0,73.89,0,111.75c8.21,0,16.39,0,24.57,0c-0.03,0.61-0.06,1.22-0.08,1.83
			c-17.26,0-34.52,0-51.93,0c1.66-2.21,1.66-2.21,11.66-2.21c4.15,0,8.31,0,12.84,0c0-37.15,0-74.01,0-110.89
			c-8.24-0.45-16.25-0.89-24.26-1.37C387.23,670.86,387.21,670.26,387.09,669.37z"/>
		<path class="st8" d="M376.83,669.1c-18.24,19.39-36.94,39.27-55.77,59.28c20.83,18.43,42.59,37.67,64.35,56.92
			c-0.2,0.37-0.41,0.74-0.61,1.11c-1.71-0.85-3.71-1.37-5.1-2.59c-20.17-17.64-40.24-35.4-60.39-53.05c-2.6-2.28-2.76-4-0.21-6.49
			c18.26-17.78,36.41-35.67,54.66-53.46C374.81,669.81,376.38,669.34,376.83,669.1z"/>
		<path class="st9" d="M351.76,521.14c18.36,4.76,36.73,9.53,55.63,14.43c-2.99,2.07-5.85,4.05-8.56,5.92
			c-3.26-1.58-6.18-3-9.11-4.42c-0.21,0.25-0.41,0.5-0.62,0.76c1.45,1.35,3.2,2.5,4.24,4.11c0.66,1.03,0.83,3.24,0.17,4.02
			c-0.74,0.86-3.15,1.43-4.03,0.87c-12.84-8.19-25.54-16.6-38.28-24.95C351.39,521.64,351.57,521.39,351.76,521.14z"/>
		<path class="st10" d="M631.27,628.74c-6.42,0-12.83,0.01-19.25-0.02c-0.64,0-1.46-0.13-1.89-0.53
			c-8.43-7.93-20.33-7.32-29.92-12.25c-4.4-2.26-8.33-5.46-11.94-9.22c22.22,4.15,42.01,14.7,63.49,20.44
			C631.6,627.69,631.44,628.22,631.27,628.74z"/>
		<path class="st10" d="M511.06,595.19c18.06,6.24,35.57,12.28,51.2,17.68c-11.25,0-24.38,0.12-37.5-0.16
			c-1.51-0.03-3.34-1.97-4.41-3.47C517.18,604.81,514.3,600.15,511.06,595.19z"/>
		<path class="st11" d="M311.3,785.79c0-38.85,0-77.71,0-116.56c0.51-0.12,1.03-0.23,1.54-0.35c0.34,1.53,0.96,3.06,0.97,4.59
			c0.07,16.33,0.04,32.66,0.04,48.99c0,19.5,0.02,38.99-0.03,58.49c0,1.71-0.49,3.42-0.75,5.13
			C312.47,785.98,311.88,785.88,311.3,785.79z"/>
		<path class="st12" d="M788.41,282.47c-1.9,3.33-3.8,6.65-6.08,10.63c-1.42-1.63-2.77-3.18-4.67-5.36
			c7.33-6.92,14.62-13.8,22.64-21.37c-3.2,16.94-6.28,33.29-9.37,49.63c-0.48-0.04-0.96-0.08-1.45-0.12
			c0.56-8.66,1.12-17.31,1.68-25.97c-0.23-0.06-0.47-0.12-0.7-0.18c-1.01,3.08-2.03,6.17-2.99,9.11
			c-2.73-5.45,0.37-10.42,1.83-15.57c0.21-0.89,0.42-1.78,0.63-2.68c-0.2-0.06-0.4-0.11-0.6-0.17
			C789.03,281.11,788.72,281.79,788.41,282.47z"/>
		<path class="st13" d="M322.5,625.68c5.46-3.67,10.41-7.17,15.56-10.34c1.31-0.81,4.04-1.39,4.78-0.68
			c3.24,3.13,5.98,6.78,9.57,11.02C341.79,625.68,332.42,625.68,322.5,625.68z"/>
		<path class="st14" d="M543.96,484.03c1.04-0.24,2.19-0.27,3.09-0.76c5.05-2.71,9.32-1.62,13.11,3.13
			c0.53,0.66,2.46-0.01,3.54,0.44c3.91,1.63,7.72,3.48,11.37,6.14c-10.94-0.88-21.89-1.76-32.82-2.63c0.71-2.57,1.23-4.47,1.75-6.37
			C544.01,483.98,543.96,484.03,543.96,484.03z"/>
		<path class="st14" d="M469.78,285.17c3.54-6.09,7.09-12.18,11.23-19.3c2.78,4.63,5.08,8.46,7.86,13.09
			c-6.36,2.78-12.23,5.34-18.1,7.9C470.44,286.3,470.11,285.73,469.78,285.17z"/>
		<path class="st14" d="M531.95,589.18c2.8,4.31,5.36,8.26,8.81,13.57c-9.81-3.91-18.23-7.28-27.26-10.88
			C517.34,588.43,517.34,588.43,531.95,589.18z"/>
		<path class="st15" d="M539.98,579.03c2.01,0.34,4.01,0.67,6.02,1.01c0,0-0.08-0.06-0.08-0.06c8.67,4.72,17.34,9.45,26.01,14.17
			c1.87,1.02,3.75,2.01,5.29,3.94c-7.93-2.64-15.75-5.68-23.82-7.79c-5.83-1.53-10.14-4.38-13.01-9.55c-0.28-0.51-0.24-1.2-0.34-1.8
			L539.98,579.03z"/>
		<path class="st6" d="M568.25,625.6c9.66,2.45,19.24,3.65,28.44,9.83C584.78,637.03,575,636.41,568.25,625.6z"/>
		<path class="st16" d="M501.55,601.53c-3.9-1.81-8.08-3.19-11.62-5.54c-3.59-2.38-4.19-6.47-3.82-10.5c1.8-0.33,3.26-0.59,4.38-0.8
			c3.7,5.13,7.68,10.64,11.66,16.16C501.93,601.06,501.73,601.29,501.55,601.53z"/>
		<path class="st15" d="M260.13,629.68c-7.04,4.77-14.47,2.75-16.82-3.5c-1.13-2.99,1.29-3.69,3.22-2.93
			C250.94,624.99,255.12,627.27,260.13,629.68z"/>
		<path class="st12" d="M789.83,459.32c-1.32,7.75-2.57,15.1-3.92,23.08C780.31,473.05,782.67,460.13,789.83,459.32z"/>
		<path class="st6" d="M560.38,609.33c-5.03-1.77-10.37-3.02-14.93-5.62c-1.43-0.82-0.76-5.3-1.05-8.11
			c0.42-0.14,0.85-0.28,1.27-0.42c5.09,4.37,10.18,8.73,15.28,13.1C560.76,608.63,560.57,608.98,560.38,609.33z"/>
		<path class="st17" d="M455,496c1.34,0.66,2.69,1.33,4.03,1.99c0,0-0.03-0.04-0.03-0.04c1.02,1.35,2.03,2.7,3.05,4.05
			c0,0-0.04-0.05-0.04-0.05c0.68,1.36,1.35,2.71,2.03,4.07c0,0-0.06-0.05-0.06-0.05c1.61,3.39,3.22,6.77,4.82,10.16
			c-0.17,0.16-0.35,0.33-0.52,0.49c-1.19-1.1-2.38-2.2-3.73-3.45c-0.61,1.37-1.18,2.64-1.78,3.97c-0.33-0.19-0.74-0.35-0.73-0.41
			C464.25,508.28,456.4,503.23,455,496L455,496z"/>
		<path class="st6" d="M194.93,411.43c0-2.42-0.3-4.89,0.1-7.24c0.3-1.77,1.5-3.4,2.3-5.09c1.49,0.8,3.04,1.51,4.45,2.44
			c0.65,0.43,1.02,1.27,1.8,2.3c-2.23,2.76-4.45,5.52-6.66,8.27C196.26,411.88,195.6,411.65,194.93,411.43z"/>
		<path class="st14" d="M238.55,615.04c-6.13,6.67-6.13,6.67-12.83-4.47C229.88,612.02,234.03,613.46,238.55,615.04z"/>
		<path class="st6" d="M541.2,585.29c-5.51,0-11.02,0-16.53,0c1.89-1.66,5.79-0.81,2.92-5.71c5.48,1.9,9.87,3.43,14.26,4.95
			C541.63,584.78,541.41,585.03,541.2,585.29z"/>
		<path class="st10" d="M195.14,379.89c5.91,1.7,6.75,5.91,6.96,11.08C197.08,388.86,194.65,385.68,195.14,379.89z"/>
		<path class="st16" d="M492.14,561.19c-5.06-0.49-12.07,2-12.83-7.28C483.7,556.4,487.92,558.8,492.14,561.19z"/>
		<path class="st17" d="M225.99,588.81c2.46,4.04,4.92,8.08,8,13.14C227.68,599.6,227.07,598.58,225.99,588.81z"/>
		<path class="st18" d="M470.02,572.88c-1.2-3.93-5.61-7.27-1.21-13.25c1.09,4.9,1.96,8.85,2.84,12.81
			C471.11,572.59,470.56,572.73,470.02,572.88z"/>
		<path class="st11" d="M440.03,573.63c0.74-7.59,2.95-9.29,8.63-6.82C445.8,569.07,443.34,571.01,440.03,573.63z"/>
		<path class="st17" d="M485.04,573.96c-5.36,0.04-7.57-4.21-10.32-7.73c3.66,2.27,9.58,1.5,10.25,7.8L485.04,573.96z"/>
		<path class="st7" d="M522.17,314.99c7,7.56,5.82,8.72,0.59,10.73C522.58,322.41,522.4,319.15,522.17,314.99z"/>
		<path class="st6" d="M519.43,557.76c-0.58-2.27-1.17-4.53-1.92-7.45c2.07-0.12,3.56-0.2,6.17-0.35c-1.02,3.19-1.8,5.62-2.58,8.05
			C520.54,557.93,519.98,557.84,519.43,557.76z"/>
		<path class="st19" d="M490.32,504.18c-1.73-0.24-2.87-0.39-4.47-0.61c1.86-3.16,3.64-6.19,5.42-9.21
			c0.29,0.05,0.59,0.11,0.88,0.16C491.52,497.86,490.89,501.2,490.32,504.18z"/>
		<path class="st11" d="M486.24,564.57c3.81-0.24,7.62-0.47,11.42-0.71c0.07,0.59,0.14,1.18,0.21,1.78
			c-3.78,0.52-7.56,1.05-11.34,1.57C486.44,566.33,486.34,565.45,486.24,564.57z"/>
		<path class="st11" d="M428.35,563.29c-3.33,2.73-6.65,5.46-9.98,8.19c-0.42-0.51-0.84-1.01-1.26-1.52
			c3.32-2.72,6.65-5.45,9.97-8.17C427.5,562.29,427.92,562.79,428.35,563.29z"/>
		<path class="st12" d="M560.66,538.26c-2.69,3.09-9.31,3.89-13.09,1.18C552.28,539.01,556.37,538.65,560.66,538.26z"/>
		<path class="st7" d="M426.72,545.39c-0.72-2.38-1.26-4.16-2.21-7.26c3.34,1.88,5.43,3.06,8.46,4.77
			C430.55,543.87,428.99,544.49,426.72,545.39z"/>
		<path class="st16" d="M552.97,554.98c-0.01,0.34-0.02,0.67-0.03,1.01c0,0,0.07-0.08,0.07-0.09c-2.23,2.39-4.47,4.79-6.7,7.18
			c-0.46-0.44-0.91-0.89-1.37-1.33c0.77-4.13,4.3-5.56,8.12-6.7L552.97,554.98z"/>
		<path class="st7" d="M780.4,459.67c-5.14-0.39-4.88-4.77-6.32-7.88c0.37-0.28,0.75-0.57,1.12-0.85c1.98,2.65,3.96,5.29,5.94,7.94
			C780.89,459.14,780.65,459.41,780.4,459.67z"/>
		<path class="st20" d="M513.3,501.3c-2.57,2.6-5.15,5.21-7.72,7.81c-0.54-0.61-1.08-1.21-1.62-1.82c2.97-2.14,5.95-4.28,8.92-6.42
			C513.02,501.02,513.16,501.16,513.3,501.3z"/>
		<path class="st5" d="M532.9,568.37c2.43,0.99,4.85,1.98,7.97,3.26c-4.88,3.68-6.5,0.31-8.73-1.28
			C532.39,569.68,532.64,569.03,532.9,568.37z"/>
		<path class="st5" d="M779.04,473.95c-1.71,3.01-3.43,6.02-5.14,9.04c-0.53-0.28-1.05-0.56-1.58-0.84
			c1.58-3.09,3.17-6.18,4.75-9.26C777.73,473.24,778.39,473.6,779.04,473.95z"/>
		<path class="st21" d="M452.97,513.56c-2.91,1.42-4.03,0.66-6.48-4.95c2.57,1.59,4.55,2.82,6.53,4.05
			C453.07,512.97,453.05,513.27,452.97,513.56z"/>
		<path class="st3" d="M579.38,514.26c-0.57,0.8-1.15,1.6-1.72,2.4c-0.57-0.55-1.13-1.1-1.7-1.65c1-0.35,2-0.7,3.01-1.05
			C579.09,514.08,579.23,514.17,579.38,514.26z"/>
		<path class="st3" d="M520.2,496.19c-0.1,0.74-0.2,1.48-0.3,2.22c-0.27-0.07-0.55-0.15-0.82-0.22c0.29-0.75,0.58-1.5,0.87-2.25
			L520.2,496.19z"/>
		<path class="st2" d="M242.77,342.2c-0.14-0.64-0.28-1.28-0.42-1.92c0.42,0.35,0.84,0.7,1.27,1.04
			C243.34,341.62,243.06,341.91,242.77,342.2z"/>
		<path class="st3" d="M528.14,510.16c-0.6,0.18-1.19,0.37-1.79,0.55c0.33-0.44,0.66-0.88,0.99-1.32
			C527.61,509.65,527.88,509.91,528.14,510.16z"/>
		<path class="st7" d="M781.14,458.88c0.19,0.59,0.38,1.18,0.57,1.77c-0.43-0.33-0.87-0.66-1.3-0.98
			C780.65,459.41,780.89,459.14,781.14,458.88z"/>
		<path class="st4" d="M431.64,566.27c-0.11-0.25-0.37-0.6-0.3-0.68c0.18-0.22,0.49-0.38,0.77-0.42c0.09-0.01,0.25,0.4,0.38,0.62
			C432.21,565.94,431.94,566.1,431.64,566.27z"/>
		<path class="st3" d="M571.01,484.97c-0.53-0.11-1.06-0.21-0.2-0.04c-0.65-0.56-0.26-0.22,0.13,0.12L571.01,484.97z"/>
		<path class="st20" d="M512.88,500.87c0.23-0.2,0.45-0.4,0.68-0.61c-0.09,0.34-0.17,0.69-0.26,1.03
			C513.16,501.16,513.02,501.02,512.88,500.87z"/>
		<path class="st3" d="M456.98,518c0.11,0.08,0.24,0.15,0.33,0.25c0.04,0.05,0.01,0.16,0.01,0.24c-0.09-0.18-0.18-0.36-0.26-0.54
			C457.05,517.95,456.98,518,456.98,518z"/>
		<path class="st16" d="M553.06,555.05c0.05-0.23,0.1-0.46,0.16-0.69c-0.08,0.2-0.16,0.41-0.24,0.61
			C552.97,554.98,553.06,555.05,553.06,555.05z"/>
		<path class="st17" d="M484.97,574.03c0.13,0.04,0.27,0.06,0.38,0.14c0.05,0.04,0.03,0.18,0.05,0.28
			c-0.12-0.16-0.23-0.32-0.35-0.48C485.04,573.96,484.97,574.03,484.97,574.03z"/>
		<path class="st2" d="M661.02,577.02c-0.23,0.22-0.45,0.44-0.68,0.65c0.16-0.29,0.33-0.58,0.48-0.87
			C660.82,576.8,661.02,577.02,661.02,577.02z"/>
		<path class="st15" d="M540.05,578.94c-0.18-0.1-0.37-0.19-0.55-0.29c0.09,0,0.23-0.05,0.27,0c0.09,0.1,0.14,0.25,0.21,0.38
			C539.98,579.03,540.05,578.94,540.05,578.94z"/>
		<path class="st2" d="M709.98,451.98c-0.19,0.21-0.37,0.41-0.56,0.62c-0.03-0.15-0.07-0.3-0.1-0.44c0.24-0.03,0.48-0.06,0.73-0.09
			C710.05,452.07,709.98,451.98,709.98,451.98z"/>
		<path class="st3" d="M519.95,495.94c0.21-0.23,0.41-0.45,0.62-0.68c-0.12,0.31-0.25,0.61-0.37,0.93
			C520.2,496.19,519.95,495.94,519.95,495.94z"/>
		<path class="st17" d="M455,496c-0.24-0.06-0.48-0.12-0.72-0.18C454.52,495.88,454.76,495.94,455,496L455,496z"/>
		<path class="st3" d="M689.01,533c-0.09,0.14-0.16,0.29-0.27,0.4c-0.05,0.05-0.19,0.01-0.28,0.01c0.2-0.11,0.41-0.23,0.61-0.34
			C689.07,533.07,689.01,533,689.01,533z"/>
		<path class="st3" d="M519.61,493.22c0.1,0.1,0.2,0.19,0.3,0.29c-0.11,0.09-0.22,0.25-0.32,0.25c-0.1,0-0.2-0.17-0.3-0.27
			C519.4,493.4,519.51,493.31,519.61,493.22z"/>
		<path class="st16" d="M502.15,600.86c0.16,0.29,0.33,0.57,0.49,0.86c-0.37-0.06-0.73-0.13-1.1-0.19
			C501.73,601.29,501.93,601.06,502.15,600.86z"/>
		<path class="st3" d="M272.96,372.04c-0.17-0.28-0.35-0.56-0.52-0.84c0.28,0.19,0.55,0.38,0.83,0.57
			C273.27,371.76,272.96,372.04,272.96,372.04z"/>
		<path class="st3" d="M570.95,485.04c0.15,0.03,0.31,0.06,0.46,0.09c-0.13-0.06-0.26-0.11-0.39-0.17
			C571.01,484.97,570.95,485.04,570.95,485.04z"/>
		<path class="st1" d="M389.97,515.97c5.45,2.35,10.95,4.62,16.32,7.14c0.85,0.4,1.17,1.91,1.73,2.91
			C401.86,522.94,394.39,522.19,389.97,515.97z"/>
		<path class="st1" d="M315.87,565.12c-2.68-4.32-5.35-8.65-8.03-12.97c0.25-0.23,0.5-0.46,0.75-0.69c2.7,4.31,5.4,8.63,8.11,12.94
			C316.42,564.63,316.14,564.87,315.87,565.12z"/>
		<path class="st1" d="M249.53,461.8c-1.84,3.04-3.68,6.08-5.53,9.11c-0.4-0.25-0.8-0.5-1.2-0.74c1.86-3.08,3.72-6.17,5.58-9.25
			C248.77,461.21,249.15,461.5,249.53,461.8z"/>
		<path class="st1" d="M329.11,506.88c2.36,1.64,4.72,3.28,7.07,4.91c-0.25,0.26-0.51,0.52-0.77,0.79c-2.23-1.77-4.46-3.54-6.69-5.3
			C328.86,507.15,328.98,507.01,329.11,506.88z"/>
		<path class="st1" d="M266.33,516.36c1.47-2.2,2.95-4.4,4.42-6.61c0.27,0.25,0.54,0.5,0.82,0.74c-1.46,2.22-2.93,4.44-4.39,6.66
			C266.89,516.89,266.61,516.62,266.33,516.36z"/>
		<path class="st1" d="M261.64,554.36c1.55,1.11,3.11,2.23,4.66,3.34c-0.25,0.28-0.5,0.56-0.76,0.85c-1.56-1.14-3.11-2.27-4.67-3.41
			C261.13,554.88,261.39,554.62,261.64,554.36z"/>
		<path class="st1" d="M277.25,501.27c-1,1.65-2,3.31-3,4.96c-0.29-0.23-0.57-0.47-0.86-0.7c1.18-1.53,2.37-3.06,3.55-4.59
			L277.25,501.27z"/>
		<path class="st1" d="M386.97,513.97c1.02,0.68,2.05,1.37,3.07,2.05C389.01,515.34,387.99,514.65,386.97,513.97z"/>
		<path class="st1" d="M274.26,506.23c-0.68,0.99-1.36,1.99-2.04,2.98c-0.27-0.24-0.54-0.48-0.8-0.72c0.66-0.99,1.33-1.98,1.99-2.97
			C273.68,505.76,273.97,506,274.26,506.23z"/>
		<path class="st1" d="M285.26,534.74c0.72,0.36,1.45,0.72,2.17,1.08c-0.34,0.38-0.68,0.75-1.01,1.13
			c-0.66-0.48-1.33-0.96-1.99-1.44C284.71,535.26,284.98,535,285.26,534.74z"/>
		<path class="st1" d="M283.47,534.62c-0.47-0.5-0.94-1-1.41-1.5c0.18-0.2,0.37-0.39,0.55-0.59c0.52,0.43,1.04,0.87,1.56,1.3
			C283.94,534.09,283.71,534.35,283.47,534.62z"/>
		<path class="st1" d="M307.83,552.15c-0.18-0.6-0.37-1.2-0.55-1.79c0.43,0.37,0.86,0.74,1.3,1.1
			C308.33,551.68,308.08,551.92,307.83,552.15z"/>
		<path class="st1" d="M276.94,500.94c0.18-0.25,0.36-0.49,0.54-0.74c0.11,0.12,0.33,0.31,0.31,0.35c-0.15,0.26-0.35,0.48-0.54,0.72
			C277.25,501.27,276.94,500.94,276.94,500.94z"/>
		<path class="st1" d="M270.75,509.75c0.22-0.42,0.45-0.83,0.67-1.25c0.26,0.24,0.53,0.48,0.8,0.71c-0.22,0.43-0.44,0.85-0.65,1.28
			C271.29,510.25,271.02,510,270.75,509.75z"/>
		<path class="st1" d="M328.73,507.28c-0.07-0.36-0.14-0.71-0.21-1.07c0.2,0.22,0.39,0.45,0.59,0.67
			C328.98,507.01,328.86,507.15,328.73,507.28z"/>
		<path class="st1" d="M284.18,533.83c0.36,0.3,0.72,0.61,1.08,0.91c-0.27,0.26-0.55,0.52-0.83,0.78c-0.32-0.3-0.64-0.61-0.96-0.9
			C283.71,534.35,283.94,534.09,284.18,533.83z"/>
		<path class="st1" d="M266.3,557.7c0.16,0.33,0.32,0.66,0.48,0.99c-0.41-0.05-0.82-0.1-1.23-0.14
			C265.8,558.27,266.05,557.98,266.3,557.7z"/>
		<path class="st1" d="M624.9,445.89c2.93-1.38,5.85-2.77,8.78-4.15c0,0,0.35,0.28,0.35,0.28c-2.8,1.54-5.6,3.07-8.4,4.61
			C625.38,446.38,625.14,446.14,624.9,445.89z"/>
		<path class="st1" d="M542.97,392.03c1.35-2.02,2.71-4.04,4.06-6.06C545.68,387.99,544.32,390.01,542.97,392.03z"/>
		<path class="st1" d="M535.97,461.45c1.42-0.97,2.85-1.94,4.27-2.9c0.23,0.32,0.47,0.64,0.7,0.96c-1.35,1.06-2.7,2.11-4.05,3.17
			C536.59,462.27,536.28,461.86,535.97,461.45z"/>
		<path class="st1" d="M626.6,449.4c0.85,0.96,1.7,1.91,2.55,2.87c-0.35,0.28-0.69,0.56-1.04,0.83c-0.77-0.98-1.54-1.95-2.31-2.93
			C626.07,449.91,626.34,449.65,626.6,449.4z"/>
		<path class="st1" d="M619.63,484.41c0.96,0.68,1.92,1.36,2.88,2.04c-0.26,0.28-0.51,0.56-0.77,0.84
			c-0.94-0.74-1.88-1.48-2.82-2.22C619.19,484.88,619.43,484.66,619.63,484.41z"/>
		<path class="st1" d="M550.55,451.57c-0.97,0.66-1.93,1.32-2.9,1.99c-0.2-0.3-0.41-0.59-0.61-0.89c0.9-0.65,1.79-1.31,2.69-1.96
			C550.01,451,550.28,451.29,550.55,451.57z"/>
		<path class="st1" d="M625.62,446.63c-0.18,0.44-0.36,0.87-0.54,1.31c-0.27,0.19-0.51,0.4-0.72,0.64c-0.65-0.64-1.3-1.29-1.95-1.93
			c0.25-0.27,0.51-0.54,0.76-0.82c0.58,0.02,1.15,0.04,1.73,0.07C625.14,446.14,625.38,446.38,625.62,446.63z"/>
		<path class="st1" d="M576.49,412.53c0.77-0.91,1.54-1.81,2.31-2.72c0.26,0.26,0.53,0.51,0.79,0.77c-0.83,0.84-1.66,1.68-2.49,2.52
			C576.91,412.9,576.71,412.71,576.49,412.53z"/>
		<path class="st1" d="M560.87,502.85c0.4-0.86,0.8-1.72,1.2-2.57c0.45,0.4,0.91,0.8,1.36,1.21c-0.61,0.7-1.21,1.41-1.81,2.11
			C561.37,503.35,561.12,503.1,560.87,502.85z"/>
		<path class="st1" d="M618.92,485.07c-0.66-0.71-1.33-1.43-1.99-2.14c0.41-0.41,0.82-0.81,1.23-1.22c0.49,0.9,0.97,1.81,1.46,2.71
			C619.43,484.66,619.19,484.88,618.92,485.07z"/>
		<path class="st1" d="M520.87,489.86c0.68-0.65,1.36-1.3,2.04-1.95c0.19,0.24,0.41,0.45,0.65,0.64c-0.66,0.68-1.32,1.36-1.97,2.05
			C521.35,490.35,521.11,490.1,520.87,489.86z"/>
		<path class="st1" d="M543.29,457.29c-0.58,0.41-1.16,0.81-1.74,1.22c-0.4-0.45-0.8-0.9-1.2-1.35c0.72-0.23,1.45-0.46,2.17-0.68
			C542.78,456.76,543.03,457.03,543.29,457.29z"/>
		<path class="st1" d="M543.71,455.7c0.58-0.41,1.15-0.82,1.73-1.23c0.43,0.48,0.86,0.96,1.29,1.44c-0.74,0.21-1.49,0.42-2.23,0.62
			C544.23,456.25,543.97,455.98,543.71,455.7z"/>
		<path class="st1" d="M633.75,478.78c0.21-0.5,0.41-1,0.62-1.5c0.19,0.06,0.38,0.11,0.57,0.17c-0.16,0.65-0.31,1.3-0.46,1.96
			C634.23,479.2,633.99,478.99,633.75,478.78z"/>
		<path class="st1" d="M558.93,474.91c0.5-0.31,1-0.62,1.51-0.93c0.11,0.2,0.22,0.4,0.34,0.6c-0.49,0.26-0.99,0.52-1.48,0.79
			C559.17,475.22,559.05,475.06,558.93,474.91z"/>
		<path class="st1" d="M554.09,448.08c-0.48,0.46-0.96,0.91-1.44,1.37c-0.18-0.2-0.36-0.41-0.54-0.61c0.5-0.41,1-0.81,1.49-1.22
			C553.76,447.77,553.92,447.92,554.09,448.08z"/>
		<path class="st1" d="M549.73,450.71c0.56-0.39,1.12-0.79,1.68-1.18c0.17,0.2,0.34,0.39,0.52,0.59c-0.46,0.49-0.92,0.97-1.38,1.46
			C550.28,451.29,550.01,451,549.73,450.71z"/>
		<path class="st1" d="M625.81,450.17c-0.48-0.54-0.97-1.07-1.45-1.61c0.22-0.23,0.46-0.45,0.72-0.63c0.51,0.49,1.01,0.98,1.52,1.47
			C626.34,449.65,626.07,449.91,625.81,450.17z"/>
		<path class="st1" d="M622.51,486.45c0.74,0.2,1.49,0.39,2.23,0.59c-0.44,0.47-0.89,0.95-1.33,1.42c-0.55-0.39-1.11-0.78-1.66-1.17
			C622,487.01,622.25,486.73,622.51,486.45z"/>
		<path class="st1" d="M544.49,456.53c-0.4,0.25-0.8,0.51-1.2,0.76c-0.25-0.27-0.51-0.54-0.77-0.81c0.4-0.26,0.79-0.52,1.19-0.78
			C543.97,455.98,544.23,456.25,544.49,456.53z"/>
		<path class="st1" d="M593.82,508.81c0.35-0.14,0.7-0.28,1.05-0.43c-0.1,0.37-0.19,0.73-0.29,1.1
			C594.33,509.26,594.07,509.03,593.82,508.81z"/>
		<path class="st1" d="M530.06,505.05c0.09-0.19,0.17-0.38,0.26-0.57c0.01,0.09,0.05,0.21,0.01,0.26c-0.1,0.1-0.24,0.17-0.36,0.24
			C529.97,504.99,530.06,505.05,530.06,505.05z"/>
		<path class="st1" d="M543.74,503.73c0.36-0.14,0.72-0.27,1.08-0.41c-0.09,0.38-0.19,0.77-0.27,1.15
			C544.28,504.22,544.01,503.98,543.74,503.73z"/>
		<path class="st1" d="M577.1,413.11c-0.28,0.17-0.57,0.34-0.85,0.5c0.08-0.36,0.17-0.72,0.25-1.08
			C576.71,412.71,576.91,412.9,577.1,413.11z"/>
		<path class="st1" d="M522.91,487.91c0.34-0.33,0.68-0.66,1.02-0.98c0.17,0.19,0.34,0.36,0.52,0.53c-0.3,0.36-0.6,0.73-0.9,1.09
			C523.32,488.35,523.11,488.14,522.91,487.91z"/>
		<path class="st1" d="M523.93,486.92c0.21-0.23,0.41-0.46,0.62-0.68c-0.03,0.4-0.07,0.81-0.1,1.21
			C524.27,487.28,524.09,487.11,523.93,486.92z"/>
		<path class="st1" d="M633.67,441.74c0.34-0.09,0.68-0.18,1.01-0.28c-0.22,0.18-0.44,0.37-0.66,0.55
			C634.02,442.02,633.67,441.74,633.67,441.74z"/>
		<path class="st1" d="M553.6,447.62c0.34-0.13,0.69-0.26,1.03-0.39c-0.18,0.28-0.36,0.57-0.54,0.85
			C553.92,447.92,553.76,447.77,553.6,447.62z"/>
		<path class="st1" d="M724.97,444.03c2.13-5.8,3.91-11.77,6.49-17.37c2.68-5.83,6.13-11.3,9.24-16.93
			c0.29,0.24,0.58,0.48,0.86,0.71c-1.52,3.23-3.05,6.47-5.13,10.88c9.35-5.84,17.54-11,25.79-16.09c1.5-0.92,3.2-1.52,4.81-2.27
			c-2.21,1.8-4.27,3.87-6.67,5.36c-8.06,5.02-16.24,9.83-24.37,14.74c-0.39,0.23-0.79,0.6-0.97,1c-2.46,5.32-4.88,10.65-7.69,16.8
			c1.75-0.73,2.5-1.04,3.24-1.35c0.23,0.26,0.46,0.52,0.69,0.78C729.17,441.55,727.07,442.79,724.97,444.03z"/>
		<path class="st1" d="M731.97,537.01c-2.41-5.26-4.81-10.53-7.22-15.79c0.28-0.26,0.57-0.53,0.85-0.79
			c3.51,6.8,7.03,13.6,10.54,20.41c-0.26,0.28-0.51,0.55-0.77,0.83c-3.31-2.03-6.62-4.06-9.92-6.09c0.27-0.29,0.53-0.57,0.8-0.86
			c1.94,0.74,3.88,1.48,5.82,2.22c0.08,0.2,0.16,0.41,0.24,0.61c0.02-0.09,0.08-0.23,0.04-0.27
			C732.24,537.18,732.1,537.1,731.97,537.01z"/>
		<path class="st1" d="M712.48,497.47c-3.72,6.39-7.44,12.78-11.15,19.16c-0.49-0.3-0.98-0.6-1.48-0.9
			c4.01-6.28,8.02-12.57,12.04-18.85C712.08,497.09,712.27,497.29,712.48,497.47z"/>
		<path class="st21" d="M726.33,505.27c1.14,5.78,2.27,11.56,3.41,17.34c-0.45,0.1-0.91,0.21-1.36,0.31
			c-1.16-5.72-2.31-11.43-3.47-17.15C725.39,505.61,725.86,505.44,726.33,505.27z"/>
		<path class="st1" d="M714.96,450.02c3.36-2.01,6.72-4.03,10.08-6.04C721.68,445.99,718.32,448.01,714.96,450.02z"/>
		<path class="st1" d="M694.71,524.75c1.24-2.1,2.48-4.2,3.72-6.29c0.28,0.27,0.57,0.53,0.85,0.8c-1.25,2.07-2.5,4.13-3.74,6.2
			C695.27,525.22,694.99,524.98,694.71,524.75z"/>
		<path class="st1" d="M721.51,512.58c1.02,1.99,2.05,3.98,3.06,5.98c-0.29,0.24-0.59,0.47-0.88,0.71
			c-0.95-2.05-1.89-4.09-2.84-6.14C721.07,512.95,721.29,512.76,721.51,512.58z"/>
		<path class="st1" d="M723.71,534.32c-1.63-1.04-3.26-2.08-4.89-3.13c0.23-0.23,0.45-0.48,0.63-0.75c1.7,0.99,3.4,1.99,5.1,2.98
			C724.28,533.72,723.99,534.02,723.71,534.32z"/>
		<path class="st1" d="M712.5,605.55c-0.7-0.59-1.39-1.19-2.09-1.78c0.16-0.26,0.33-0.51,0.49-0.77c0.79,0.57,1.59,1.14,2.38,1.71
			C713.02,604.98,712.76,605.26,712.5,605.55z"/>
		<path class="st1" d="M766.96,403.02c1.02-0.68,2.05-1.37,3.07-2.05C769.01,401.65,767.99,402.34,766.96,403.02z"/>
		<path class="st1" d="M730.57,439.52c0.91-0.56,1.82-1.12,2.73-1.69c0.18,0.24,0.37,0.49,0.55,0.73c-0.86,0.58-1.73,1.16-2.59,1.74
			C731.03,440.04,730.8,439.78,730.57,439.52z"/>
		<path class="st1" d="M718.82,531.19c-0.63-0.35-1.25-0.7-1.88-1.05c0.13-0.27,0.26-0.53,0.39-0.8c0.71,0.37,1.42,0.74,2.13,1.1
			C719.27,530.71,719.05,530.96,718.82,531.19z"/>
		<path class="st1" d="M724.75,521.22c-0.35-0.65-0.71-1.31-1.06-1.96c0.29-0.23,0.58-0.47,0.88-0.71c0.35,0.63,0.69,1.25,1.03,1.88
			C725.32,520.7,725.04,520.96,724.75,521.22z"/>
		<path class="st1" d="M720.85,513.13c-0.17-0.48-0.34-0.97-0.52-1.45c0.39,0.31,0.77,0.61,1.16,0.91
			C721.29,512.76,721.07,512.95,720.85,513.13z"/>
		<path class="st1" d="M698.43,518.45c0.25-0.71,0.5-1.42,0.75-2.12c0.42,0.38,0.83,0.76,1.25,1.15c-0.38,0.59-0.76,1.18-1.15,1.78
			C699,518.99,698.72,518.72,698.43,518.45z"/>
		<path class="st1" d="M712.61,495.57c0.36-0.41,0.72-0.81,1.08-1.22c-0.21,0.57-0.41,1.15-0.62,1.72
			C712.92,495.91,712.77,495.74,712.61,495.57z"/>
		<path class="st1" d="M724.56,533.42c0.56,0.44,1.13,0.87,1.69,1.3c-0.27,0.28-0.53,0.57-0.8,0.85c-0.58-0.42-1.16-0.84-1.74-1.26
			C723.99,534.02,724.28,533.72,724.56,533.42z"/>
		<path class="st1" d="M711.89,496.88c0.24-0.44,0.49-0.87,0.72-1.31c0.15,0.16,0.3,0.33,0.46,0.5c-0.2,0.46-0.4,0.93-0.59,1.39
			C712.27,497.29,712.08,497.09,711.89,496.88z"/>
		<path class="st1" d="M751.17,482.18c-0.23,0.2-0.45,0.39-0.68,0.59c0-0.41-0.01-0.82-0.01-1.23
			C750.72,481.74,750.96,481.95,751.17,482.18z"/>
		<path class="st1" d="M514.03,322.97c-1.35,2.69-2.7,5.38-4.05,8.07C511.33,328.35,512.68,325.66,514.03,322.97z"/>
		<path class="st1" d="M508.02,334.96c-1.01,2.36-2.02,4.72-3.04,7.08C505.99,339.68,507.01,337.32,508.02,334.96z"/>
		<path class="st1" d="M516.02,318.96c-0.68,1.36-1.36,2.72-2.04,4.08C514.66,321.68,515.34,320.32,516.02,318.96z"/>
		<path class="st1" d="M462.05,502c-1.02-1.35-2.03-2.7-3.05-4.05C460.02,499.3,461.03,500.65,462.05,502z"/>
		<path class="st1" d="M439.7,436.28c-0.65-1.35-1.31-2.69-1.96-4.04c0.29-0.26,0.57-0.52,0.86-0.78c0.67,1.32,1.33,2.65,2,3.97
			C440.29,435.72,440,436,439.7,436.28z"/>
		<path class="st1" d="M464.04,506.02c-0.68-1.36-1.35-2.71-2.03-4.07C462.68,503.31,463.36,504.67,464.04,506.02z"/>
		<path class="st1" d="M510.03,330.96c-0.35,0.69-0.7,1.38-1.06,2.07C509.32,332.34,509.68,331.65,510.03,330.96z"/>
		<path class="st1" d="M509.02,332.96c-0.35,0.69-0.7,1.38-1.04,2.07C508.32,334.34,508.67,333.65,509.02,332.96z"/>
		<path class="st1" d="M436.76,430.22c-0.26-0.59-0.52-1.19-0.77-1.78c0.19-0.08,0.38-0.16,0.56-0.24c0.34,0.45,0.68,0.91,1.02,1.36
			C437.29,429.78,437.02,430,436.76,430.22z"/>
		<path class="st1" d="M437.56,429.56c0.34,0.64,0.68,1.27,1.03,1.91c-0.28,0.26-0.57,0.51-0.86,0.77
			c-0.33-0.67-0.65-1.35-0.98-2.03C437.02,430,437.29,429.78,437.56,429.56z"/>
		<path class="st1" d="M453.73,445.76c0.23-0.52,0.46-1.05,0.68-1.57c0.21,0.07,0.43,0.15,0.64,0.22c-0.2,0.66-0.4,1.32-0.6,1.98
			C454.21,446.19,453.97,445.98,453.73,445.76z"/>
		<path class="st21" d="M616,515.06c6.07,1.92,12.15,3.85,18.22,5.77c-0.18,0.58-0.37,1.15-0.55,1.73
			c-5.88-2.04-11.76-4.07-17.61-6.18c-0.14-0.05,0-0.9,0.01-1.38C616.08,515,616,515.06,616,515.06z"/>
		<path class="st1" d="M607.14,568.88c1.83,2.51,6.41,3.32,4.66,8.53c-1.95-2.8-3.69-5.29-5.43-7.78
			C606.63,569.38,606.88,569.13,607.14,568.88z"/>
		<path class="st1" d="M614.4,569.42c0.8-0.54,1.61-1.09,2.41-1.63c0.24,0.26,0.47,0.52,0.71,0.77c-0.77,0.55-1.55,1.1-2.32,1.66
			C614.93,569.95,614.66,569.68,614.4,569.42z"/>
		<path class="st1" d="M615.2,570.22c-0.68,0.55-1.36,1.1-2.04,1.66c-0.18-0.19-0.36-0.39-0.54-0.58c0.6-0.62,1.19-1.25,1.78-1.87
			C614.66,569.68,614.93,569.95,615.2,570.22z"/>
		<path class="st1" d="M548.44,578.61c-0.45-0.41-0.9-0.81-1.35-1.22c0.11-0.18,0.23-0.36,0.34-0.54c0.52,0.29,1.04,0.59,1.56,0.88
			C548.8,578.02,548.62,578.31,548.44,578.61z"/>
		<path class="st1" d="M616.81,567.79c0.53-0.21,1.06-0.43,1.59-0.64c-0.3,0.47-0.59,0.94-0.88,1.41
			C617.28,568.3,617.05,568.04,616.81,567.79z"/>
		<path class="st1" d="M350.1,452.09c0.16,4.75,0.09,9.42-5.01,12.51c-0.01-2.2,3.02-5.62-2.81-5.28c2.74-3.05,4.91-5.49,7.09-7.92
			C349.62,451.62,349.86,451.85,350.1,452.09z"/>
		<path class="st21" d="M442.03,503.05c-0.6-3.48-1.2-6.95-1.8-10.43c0.29-0.09,0.59-0.19,0.88-0.28c1.71,5.2,3.42,10.4,5.14,15.59
			c-0.67,0.56-1.35,1.12-2.02,1.69c-0.97-1.69-1.95-3.37-2.92-5.06c0.28-0.25,0.56-0.49,0.84-0.74c0.18-0.2,0.36-0.41,0.55-0.61
			c-0.24-0.08-0.49-0.16-0.73-0.24L442.03,503.05z"/>
		<path class="st1" d="M302.73,435.24c-1.71-3.38-3.41-6.77-5.55-11c5.75,2.28,7.16,5.73,6.38,10.33
			C303.29,434.79,303.01,435.01,302.73,435.24z"/>
		<path class="st1" d="M418.7,505.29c-1.89-2.5-3.78-5-5.67-7.5c0.39-0.29,0.79-0.57,1.18-0.86c1.77,2.53,3.55,5.05,5.32,7.58
			C419.26,504.77,418.98,505.03,418.7,505.29z"/>
		<path class="st1" d="M350.87,449.89c1.18-1.66,2.35-3.31,3.53-4.97c0.37,0.26,0.73,0.51,1.1,0.77c-1.3,1.63-2.6,3.26-3.9,4.89
			C351.37,450.32,351.13,450.09,350.87,449.89z"/>
		<path class="st1" d="M303.56,434.56c0.85,1.8,1.71,3.59,2.56,5.39c-0.38,0.18-0.77,0.36-1.15,0.54c-0.75-1.75-1.5-3.5-2.25-5.25
			C303.01,435.01,303.29,434.79,303.56,434.56z"/>
		<path class="st21" d="M441.3,504.57c-0.8-0.85-1.6-1.7-2.4-2.55c0.18-0.2,0.36-0.4,0.53-0.59c0.86,0.54,1.73,1.09,2.59,1.63
			c0,0-0.07-0.08-0.07-0.08c0.07,0.28,0.13,0.57,0.19,0.85C441.87,504.08,441.58,504.32,441.3,504.57z"/>
		<path class="st1" d="M387.43,476.47c-0.65-1.01-1.3-2.01-1.96-3.02c0.27-0.23,0.53-0.46,0.8-0.69c0.68,0.99,1.36,1.98,2.03,2.97
			C388.01,475.98,387.72,476.22,387.43,476.47z"/>
		<path class="st1" d="M389.75,471.23c-0.64-0.82-1.27-1.64-1.91-2.47c0.21-0.18,0.42-0.36,0.63-0.54c0.7,0.76,1.39,1.51,2.09,2.27
			C390.29,470.74,390.02,470.98,389.75,471.23z"/>
		<path class="st1" d="M385.47,473.45c-0.41-0.71-0.82-1.42-1.22-2.14c0.22-0.14,0.44-0.29,0.67-0.43c0.45,0.62,0.9,1.25,1.35,1.87
			C386,472.99,385.73,473.22,385.47,473.45z"/>
		<path class="st1" d="M307.59,433.38c0.52,0.57,1.03,1.13,1.55,1.7c-0.17,0.2-0.34,0.41-0.51,0.61c-0.6-0.52-1.19-1.03-1.79-1.55
			C307.09,433.89,307.34,433.64,307.59,433.38z"/>
		<path class="st1" d="M306.84,434.14c-0.43-0.5-0.86-1.01-1.29-1.51c0.18-0.18,0.37-0.37,0.55-0.55c0.49,0.44,0.99,0.88,1.48,1.31
			C307.34,433.64,307.09,433.89,306.84,434.14z"/>
		<path class="st1" d="M349.38,451.39c0.5-0.5,1-1,1.49-1.51c0.26,0.2,0.51,0.43,0.73,0.69c-0.5,0.51-1,1.01-1.5,1.51
			C349.86,451.85,349.62,451.62,349.38,451.39z"/>
		<path class="st1" d="M447.71,518.71c0.26-0.17,0.52-0.35,0.79-0.52c-0.02,0.41-0.03,0.83-0.05,1.24
			C448.21,519.19,447.96,518.95,447.71,518.71z"/>
		<path class="st1" d="M419.53,504.52c0.24,0.41,0.47,0.83,0.71,1.24c-0.28,0.25-0.57,0.49-0.85,0.74c-0.23-0.4-0.46-0.81-0.69-1.21
			C418.98,505.03,419.26,504.77,419.53,504.52z"/>
		<path class="st1" d="M244.18,346.83c0.19,0.21,0.39,0.42,0.58,0.64c-0.35-0.06-0.71-0.11-1.06-0.16
			C243.86,347.14,244.02,346.98,244.18,346.83z"/>
		<path class="st1" d="M740.7,409.73c1.26-2.3,2.52-4.6,3.79-6.9c0.39,0.23,0.78,0.45,1.17,0.68c-1.37,2.31-2.73,4.62-4.1,6.93
			C741.27,410.21,740.98,409.97,740.7,409.73z"/>
		<path class="st1" d="M773.49,365.55c0.64-1.01,1.29-2.01,1.93-3.02c0.29,0.24,0.58,0.48,0.87,0.72c-0.66,1-1.33,2-1.99,3.01
			C774.02,366.02,773.76,365.79,773.49,365.55z"/>
		<path class="st1" d="M774.29,366.26c-0.38,0.59-0.77,1.18-1.15,1.77c-0.25-0.13-0.51-0.27-0.76-0.4c0.37-0.69,0.75-1.38,1.12-2.07
			C773.76,365.79,774.02,366.02,774.29,366.26z"/>
		<path class="st1" d="M395.43,568.34c3.36-1.24,6.72-2.48,11.48-4.23c-1.98,3.03-3.1,4.73-4.37,6.69
			c-1.25-4.99-4.24-1.57-6.47-1.73C395.88,568.81,395.67,568.57,395.43,568.34z"/>
		<path class="st1" d="M396.07,569.08c-1.31,1.38-2.62,2.76-3.94,4.14c-0.45-0.45-0.9-0.91-1.35-1.36c1.55-1.17,3.11-2.34,4.66-3.51
			C395.67,568.57,395.88,568.81,396.07,569.08z"/>
		<path class="st1" d="M454.18,596.19c-0.79,0.63-1.59,1.27-2.38,1.9c-0.18-0.21-0.36-0.41-0.54-0.62c0.72-0.69,1.44-1.37,2.15-2.06
			C453.66,595.67,453.92,595.93,454.18,596.19z"/>
		<path class="st1" d="M410.09,594.09c-0.21,0.22-0.41,0.45-0.62,0.67c0.03-0.4,0.06-0.81,0.08-1.21
			C409.73,593.72,409.91,593.9,410.09,594.09z"/>
		<path class="st1" d="M788.41,282.47c0.31-0.68,0.62-1.36,0.93-2.04c0.2,0.06,0.4,0.11,0.6,0.17c-0.21,0.89-0.42,1.78-0.63,2.68
			C789.01,283.01,788.71,282.74,788.41,282.47z"/>
		<path class="st3" d="M731.97,537.01c0.13,0.09,0.27,0.16,0.38,0.27c0.04,0.04-0.03,0.18-0.04,0.27c-0.08-0.2-0.16-0.41-0.24-0.61
			C732.07,536.95,731.97,537.01,731.97,537.01z"/>
		<path class="st3" d="M442.15,503.83c-0.05-0.29-0.12-0.57-0.19-0.85c0.24,0.08,0.49,0.16,0.73,0.24
			C442.51,503.42,442.33,503.63,442.15,503.83z"/>
	</g>
</g>
</svg>